0, 0, Header, 1, 4, 384
1, 0, Start_track
1, 0, Time_signature, 2, 2, 96, 8
1, 0, Sequencer_specific, 3, 0, 0, 65
1, 0, Sequencer_specific, 5, 0, 0, 119, 14, 0
1, 0, Tempo, 400000
1, 76416, Tempo, 588235
1, 76416, End_track
2, 0, Start_track
2, 0, Title_t, "Melody"
2, 0, Control_c, 0, 0, 0
2, 0, Program_c, 0, 48
2, 0, Control_c, 0, 7, 117
2, 0, Control_c, 0, 10, 64
2, 0, Control_c, 0, 91, 127
2, 0, Control_c, 0, 93, 0
2, 0, Note_on_c, 0, 88, 100
2, 96, Note_off_c, 0, 88, 90
2, 96, Note_on_c, 0, 87, 100
2, 192, Note_off_c, 0, 87, 90
2, 192, Note_on_c, 0, 86, 100
2, 288, Note_off_c, 0, 86, 90
2, 288, Note_on_c, 0, 85, 100
2, 384, Note_off_c, 0, 85, 90
2, 384, Note_on_c, 0, 86, 100
2, 480, Note_off_c, 0, 86, 90
2, 480, Note_on_c, 0, 85, 100
2, 576, Note_off_c, 0, 85, 90
2, 576, Note_on_c, 0, 84, 100
2, 672, Note_off_c, 0, 84, 90
2, 672, Note_on_c, 0, 83, 100
2, 768, Note_off_c, 0, 83, 90
2, 768, Note_on_c, 0, 84, 100
2, 864, Note_off_c, 0, 84, 90
2, 864, Note_on_c, 0, 83, 100
2, 960, Note_off_c, 0, 83, 90
2, 960, Note_on_c, 0, 82, 100
2, 1056, Note_off_c, 0, 82, 90
2, 1056, Note_on_c, 0, 81, 100
2, 1152, Note_off_c, 0, 81, 90
2, 1152, Note_on_c, 0, 80, 100
2, 1248, Note_off_c, 0, 80, 90
2, 1248, Note_on_c, 0, 79, 100
2, 1344, Note_off_c, 0, 79, 90
2, 1344, Note_on_c, 0, 78, 100
2, 1440, Note_off_c, 0, 78, 90
2, 1440, Note_on_c, 0, 77, 100
2, 1536, Note_off_c, 0, 77, 90
2, 1536, Note_on_c, 0, 76, 100
2, 1632, Note_off_c, 0, 76, 90
2, 1632, Note_on_c, 0, 75, 100
2, 1728, Note_off_c, 0, 75, 90
2, 1728, Note_on_c, 0, 74, 100
2, 1824, Note_off_c, 0, 74, 90
2, 1824, Note_on_c, 0, 73, 100
2, 1920, Note_off_c, 0, 73, 90
2, 1920, Note_on_c, 0, 74, 100
2, 2016, Note_off_c, 0, 74, 90
2, 2016, Note_on_c, 0, 73, 100
2, 2112, Note_off_c, 0, 73, 90
2, 2112, Note_on_c, 0, 72, 100
2, 2208, Note_off_c, 0, 72, 90
2, 2208, Note_on_c, 0, 71, 100
2, 2304, Note_off_c, 0, 71, 90
2, 2304, Note_on_c, 0, 72, 100
2, 2400, Note_off_c, 0, 72, 90
2, 2400, Note_on_c, 0, 71, 100
2, 2496, Note_off_c, 0, 71, 90
2, 2496, Note_on_c, 0, 70, 100
2, 2592, Note_off_c, 0, 70, 90
2, 2592, Note_on_c, 0, 69, 100
2, 2688, Note_off_c, 0, 69, 90
2, 2688, Note_on_c, 0, 68, 100
2, 2784, Note_off_c, 0, 68, 90
2, 2784, Note_on_c, 0, 67, 100
2, 2880, Note_off_c, 0, 67, 90
2, 2880, Note_on_c, 0, 66, 100
2, 2976, Note_off_c, 0, 66, 90
2, 2976, Note_on_c, 0, 65, 100
2, 3072, Note_off_c, 0, 65, 90
2, 3072, Note_on_c, 0, 64, 100
2, 3168, Note_off_c, 0, 64, 90
2, 3168, Note_on_c, 0, 63, 100
2, 3264, Note_off_c, 0, 63, 90
2, 3264, Note_on_c, 0, 62, 100
2, 3360, Note_off_c, 0, 62, 90
2, 3360, Note_on_c, 0, 61, 100
2, 3456, Note_off_c, 0, 61, 90
2, 3456, Note_on_c, 0, 62, 100
2, 3552, Note_off_c, 0, 62, 90
2, 3552, Note_on_c, 0, 61, 100
2, 3648, Note_off_c, 0, 61, 90
2, 3648, Note_on_c, 0, 60, 100
2, 3744, Note_off_c, 0, 60, 90
2, 3744, Note_on_c, 0, 59, 100
2, 3840, Note_off_c, 0, 59, 90
2, 3840, Note_on_c, 0, 64, 100
2, 3936, Note_off_c, 0, 64, 90
2, 3936, Note_on_c, 0, 63, 100
2, 4032, Note_off_c, 0, 63, 90
2, 4032, Note_on_c, 0, 62, 100
2, 4128, Note_off_c, 0, 62, 90
2, 4128, Note_on_c, 0, 61, 100
2, 4224, Note_off_c, 0, 61, 90
2, 4224, Note_on_c, 0, 62, 100
2, 4320, Note_off_c, 0, 62, 90
2, 4320, Note_on_c, 0, 61, 100
2, 4416, Note_off_c, 0, 61, 90
2, 4416, Note_on_c, 0, 60, 100
2, 4512, Note_off_c, 0, 60, 90
2, 4512, Note_on_c, 0, 59, 100
2, 4608, Note_off_c, 0, 59, 90
2, 4608, Note_on_c, 0, 60, 100
2, 4608, Note_on_c, 0, 64, 100
2, 4704, Note_off_c, 0, 60, 90
2, 4704, Note_off_c, 0, 64, 90
2, 4704, Note_on_c, 0, 63, 100
2, 4800, Note_off_c, 0, 63, 90
2, 4800, Note_on_c, 0, 62, 100
2, 4896, Note_off_c, 0, 62, 90
2, 4896, Note_on_c, 0, 61, 100
2, 4992, Note_off_c, 0, 61, 90
2, 4992, Note_on_c, 0, 60, 100
2, 5088, Note_off_c, 0, 60, 90
2, 5088, Note_on_c, 0, 65, 100
2, 5184, Note_off_c, 0, 65, 90
2, 5184, Note_on_c, 0, 64, 100
2, 5280, Note_off_c, 0, 64, 90
2, 5280, Note_on_c, 0, 63, 100
2, 5376, Note_off_c, 0, 63, 90
2, 5376, Note_on_c, 0, 60, 100
2, 5376, Note_on_c, 0, 64, 100
2, 5472, Note_off_c, 0, 60, 90
2, 5472, Note_off_c, 0, 64, 90
2, 5472, Note_on_c, 0, 63, 100
2, 5568, Note_off_c, 0, 63, 90
2, 5568, Note_on_c, 0, 62, 100
2, 5664, Note_off_c, 0, 62, 90
2, 5664, Note_on_c, 0, 61, 100
2, 5760, Note_off_c, 0, 61, 90
2, 5760, Note_on_c, 0, 60, 100
2, 5856, Note_off_c, 0, 60, 90
2, 5856, Note_on_c, 0, 61, 100
2, 5952, Note_off_c, 0, 61, 90
2, 5952, Note_on_c, 0, 62, 100
2, 6048, Note_off_c, 0, 62, 90
2, 6048, Note_on_c, 0, 63, 100
2, 6144, Note_off_c, 0, 63, 90
2, 6144, Note_on_c, 0, 60, 100
2, 6144, Note_on_c, 0, 64, 100
2, 6240, Note_off_c, 0, 60, 90
2, 6240, Note_off_c, 0, 64, 90
2, 6240, Note_on_c, 0, 63, 100
2, 6336, Note_off_c, 0, 63, 90
2, 6336, Note_on_c, 0, 62, 100
2, 6432, Note_off_c, 0, 62, 90
2, 6432, Note_on_c, 0, 61, 100
2, 6528, Note_off_c, 0, 61, 90
2, 6528, Note_on_c, 0, 60, 100
2, 6624, Note_off_c, 0, 60, 90
2, 6624, Note_on_c, 0, 65, 100
2, 6720, Note_off_c, 0, 65, 90
2, 6720, Note_on_c, 0, 64, 100
2, 6816, Note_off_c, 0, 64, 90
2, 6816, Note_on_c, 0, 63, 100
2, 6912, Note_off_c, 0, 63, 90
2, 6912, Note_on_c, 0, 60, 100
2, 6912, Note_on_c, 0, 64, 100
2, 7008, Note_off_c, 0, 60, 90
2, 7008, Note_off_c, 0, 64, 90
2, 7008, Note_on_c, 0, 63, 100
2, 7104, Note_off_c, 0, 63, 90
2, 7104, Note_on_c, 0, 62, 100
2, 7200, Note_off_c, 0, 62, 90
2, 7200, Note_on_c, 0, 61, 100
2, 7296, Note_off_c, 0, 61, 90
2, 7296, Note_on_c, 0, 60, 100
2, 7392, Note_off_c, 0, 60, 90
2, 7392, Note_on_c, 0, 61, 100
2, 7488, Note_off_c, 0, 61, 90
2, 7488, Note_on_c, 0, 62, 100
2, 7584, Note_off_c, 0, 62, 90
2, 7584, Note_on_c, 0, 63, 100
2, 7680, Note_off_c, 0, 63, 90
2, 7680, Note_on_c, 0, 60, 100
2, 7680, Note_on_c, 0, 64, 100
2, 7776, Note_off_c, 0, 60, 90
2, 7776, Note_off_c, 0, 64, 90
2, 7776, Note_on_c, 0, 63, 100
2, 7872, Note_off_c, 0, 63, 90
2, 7872, Note_on_c, 0, 62, 100
2, 7968, Note_off_c, 0, 62, 90
2, 7968, Note_on_c, 0, 61, 100
2, 8064, Note_off_c, 0, 61, 90
2, 8064, Note_on_c, 0, 62, 100
2, 8160, Note_off_c, 0, 62, 90
2, 8160, Note_on_c, 0, 61, 100
2, 8256, Note_off_c, 0, 61, 90
2, 8256, Note_on_c, 0, 60, 100
2, 8352, Note_off_c, 0, 60, 90
2, 8352, Note_on_c, 0, 59, 100
2, 8448, Note_off_c, 0, 59, 90
2, 8448, Note_on_c, 0, 60, 100
2, 8544, Note_off_c, 0, 60, 90
2, 8544, Note_on_c, 0, 61, 100
2, 8640, Note_off_c, 0, 61, 90
2, 8640, Note_on_c, 0, 62, 100
2, 8736, Note_off_c, 0, 62, 90
2, 8736, Note_on_c, 0, 63, 100
2, 8832, Note_off_c, 0, 63, 90
2, 8832, Note_on_c, 0, 64, 100
2, 8928, Note_off_c, 0, 64, 90
2, 8928, Note_on_c, 0, 65, 100
2, 9024, Note_off_c, 0, 65, 90
2, 9024, Note_on_c, 0, 64, 100
2, 9120, Note_off_c, 0, 64, 90
2, 9120, Note_on_c, 0, 63, 100
2, 9216, Note_off_c, 0, 63, 90
2, 9216, Note_on_c, 0, 64, 100
2, 9312, Note_off_c, 0, 64, 90
2, 9312, Note_on_c, 0, 63, 100
2, 9408, Note_off_c, 0, 63, 90
2, 9408, Note_on_c, 0, 62, 100
2, 9504, Note_off_c, 0, 62, 90
2, 9504, Note_on_c, 0, 61, 100
2, 9600, Note_off_c, 0, 61, 90
2, 9600, Note_on_c, 0, 62, 100
2, 9696, Note_off_c, 0, 62, 90
2, 9696, Note_on_c, 0, 61, 100
2, 9792, Note_off_c, 0, 61, 90
2, 9792, Note_on_c, 0, 60, 100
2, 9888, Note_off_c, 0, 60, 90
2, 9888, Note_on_c, 0, 59, 100
2, 9984, Note_off_c, 0, 59, 90
2, 9984, Note_on_c, 0, 60, 100
2, 10080, Note_off_c, 0, 60, 90
2, 10080, Note_on_c, 0, 61, 100
2, 10176, Note_off_c, 0, 61, 90
2, 10176, Note_on_c, 0, 62, 100
2, 10272, Note_off_c, 0, 62, 90
2, 10272, Note_on_c, 0, 63, 100
2, 10368, Note_off_c, 0, 63, 90
2, 10368, Note_on_c, 0, 64, 100
2, 10464, Note_off_c, 0, 64, 90
2, 10464, Note_on_c, 0, 66, 100
2, 10560, Note_off_c, 0, 66, 90
2, 10560, Note_on_c, 0, 67, 100
2, 10656, Note_off_c, 0, 67, 90
2, 10656, Note_on_c, 0, 68, 100
2, 10752, Note_off_c, 0, 68, 90
2, 10752, Note_on_c, 0, 69, 100
2, 10848, Note_off_c, 0, 69, 90
2, 10848, Note_on_c, 0, 68, 100
2, 10944, Note_off_c, 0, 68, 90
2, 10944, Note_on_c, 0, 67, 100
2, 11040, Note_off_c, 0, 67, 90
2, 11040, Note_on_c, 0, 66, 100
2, 11136, Note_off_c, 0, 66, 90
2, 11136, Note_on_c, 0, 65, 100
2, 11232, Note_off_c, 0, 65, 90
2, 11232, Note_on_c, 0, 70, 100
2, 11328, Note_off_c, 0, 70, 90
2, 11328, Note_on_c, 0, 69, 100
2, 11424, Note_off_c, 0, 69, 90
2, 11424, Note_on_c, 0, 68, 100
2, 11520, Note_off_c, 0, 68, 90
2, 11520, Note_on_c, 0, 69, 100
2, 11616, Note_off_c, 0, 69, 90
2, 11616, Note_on_c, 0, 68, 100
2, 11712, Note_off_c, 0, 68, 90
2, 11712, Note_on_c, 0, 67, 100
2, 11808, Note_off_c, 0, 67, 90
2, 11808, Note_on_c, 0, 66, 100
2, 11904, Note_off_c, 0, 66, 90
2, 11904, Note_on_c, 0, 65, 100
2, 12000, Note_off_c, 0, 65, 90
2, 12000, Note_on_c, 0, 66, 100
2, 12096, Note_off_c, 0, 66, 90
2, 12096, Note_on_c, 0, 67, 100
2, 12192, Note_off_c, 0, 67, 90
2, 12192, Note_on_c, 0, 68, 100
2, 12288, Note_off_c, 0, 68, 90
2, 12288, Note_on_c, 0, 69, 100
2, 12384, Note_off_c, 0, 69, 90
2, 12384, Note_on_c, 0, 68, 100
2, 12480, Note_off_c, 0, 68, 90
2, 12480, Note_on_c, 0, 67, 100
2, 12576, Note_off_c, 0, 67, 90
2, 12576, Note_on_c, 0, 66, 100
2, 12672, Note_off_c, 0, 66, 90
2, 12672, Note_on_c, 0, 65, 100
2, 12768, Note_off_c, 0, 65, 90
2, 12768, Note_on_c, 0, 70, 100
2, 12864, Note_off_c, 0, 70, 90
2, 12864, Note_on_c, 0, 69, 100
2, 12960, Note_off_c, 0, 69, 90
2, 12960, Note_on_c, 0, 68, 100
2, 13056, Note_off_c, 0, 68, 90
2, 13056, Note_on_c, 0, 69, 100
2, 13152, Note_off_c, 0, 69, 90
2, 13152, Note_on_c, 0, 68, 100
2, 13248, Note_off_c, 0, 68, 90
2, 13248, Note_on_c, 0, 67, 100
2, 13344, Note_off_c, 0, 67, 90
2, 13344, Note_on_c, 0, 66, 100
2, 13440, Note_off_c, 0, 66, 90
2, 13440, Note_on_c, 0, 65, 100
2, 13536, Note_off_c, 0, 65, 90
2, 13536, Note_on_c, 0, 66, 100
2, 13632, Note_off_c, 0, 66, 90
2, 13632, Note_on_c, 0, 67, 100
2, 13728, Note_off_c, 0, 67, 90
2, 13728, Note_on_c, 0, 68, 100
2, 13824, Note_off_c, 0, 68, 90
2, 13824, Note_on_c, 0, 69, 100
2, 13920, Note_off_c, 0, 69, 90
2, 13920, Note_on_c, 0, 68, 100
2, 14016, Note_off_c, 0, 68, 90
2, 14016, Note_on_c, 0, 67, 100
2, 14112, Note_off_c, 0, 67, 90
2, 14112, Note_on_c, 0, 66, 100
2, 14208, Note_off_c, 0, 66, 90
2, 14208, Note_on_c, 0, 67, 100
2, 14304, Note_off_c, 0, 67, 90
2, 14304, Note_on_c, 0, 66, 100
2, 14400, Note_off_c, 0, 66, 90
2, 14400, Note_on_c, 0, 65, 100
2, 14496, Note_off_c, 0, 65, 90
2, 14496, Note_on_c, 0, 64, 100
2, 14592, Note_off_c, 0, 64, 90
2, 14592, Note_on_c, 0, 65, 100
2, 14688, Note_off_c, 0, 65, 90
2, 14688, Note_on_c, 0, 66, 100
2, 14784, Note_off_c, 0, 66, 90
2, 14784, Note_on_c, 0, 67, 100
2, 14880, Note_off_c, 0, 67, 90
2, 14880, Note_on_c, 0, 68, 100
2, 14976, Note_off_c, 0, 68, 90
2, 14976, Note_on_c, 0, 69, 100
2, 15072, Note_off_c, 0, 69, 90
2, 15072, Note_on_c, 0, 70, 100
2, 15168, Note_off_c, 0, 70, 90
2, 15168, Note_on_c, 0, 69, 100
2, 15264, Note_off_c, 0, 69, 90
2, 15264, Note_on_c, 0, 68, 100
2, 15360, Note_off_c, 0, 68, 90
2, 15360, Note_on_c, 0, 69, 100
2, 15456, Note_off_c, 0, 69, 90
2, 15456, Note_on_c, 0, 68, 100
2, 15552, Note_off_c, 0, 68, 90
2, 15552, Note_on_c, 0, 67, 100
2, 15648, Note_off_c, 0, 67, 90
2, 15648, Note_on_c, 0, 66, 100
2, 15744, Note_off_c, 0, 66, 90
2, 15744, Note_on_c, 0, 67, 100
2, 15840, Note_off_c, 0, 67, 90
2, 15840, Note_on_c, 0, 66, 100
2, 15936, Note_off_c, 0, 66, 90
2, 15936, Note_on_c, 0, 65, 100
2, 16032, Note_off_c, 0, 65, 90
2, 16032, Note_on_c, 0, 64, 100
2, 16128, Note_off_c, 0, 64, 90
2, 16128, Note_on_c, 0, 65, 100
2, 16224, Note_off_c, 0, 65, 90
2, 16224, Note_on_c, 0, 66, 100
2, 16320, Note_off_c, 0, 66, 90
2, 16320, Note_on_c, 0, 67, 100
2, 16416, Note_off_c, 0, 67, 90
2, 16416, Note_on_c, 0, 68, 100
2, 16512, Note_off_c, 0, 68, 90
2, 16512, Note_on_c, 0, 69, 100
2, 16608, Note_off_c, 0, 69, 90
2, 16608, Note_on_c, 0, 70, 100
2, 16704, Note_off_c, 0, 70, 90
2, 16704, Note_on_c, 0, 69, 100
2, 16800, Note_off_c, 0, 69, 90
2, 16800, Note_on_c, 0, 68, 100
2, 16896, Note_off_c, 0, 68, 90
2, 16896, Note_on_c, 0, 69, 100
2, 17088, Note_off_c, 0, 69, 90
2, 17088, Note_on_c, 0, 57, 100
2, 17184, Note_off_c, 0, 57, 90
2, 17184, Note_on_c, 0, 57, 100
2, 17280, Note_off_c, 0, 57, 90
2, 17280, Note_on_c, 0, 57, 100
2, 17376, Note_off_c, 0, 57, 90
2, 17376, Note_on_c, 0, 57, 100
2, 17472, Note_off_c, 0, 57, 90
2, 17472, Note_on_c, 0, 57, 100
2, 17568, Note_off_c, 0, 57, 90
2, 17568, Note_on_c, 0, 57, 100
2, 17664, Note_off_c, 0, 57, 90
2, 17664, Note_on_c, 0, 56, 100
2, 17664, Note_on_c, 0, 58, 100
2, 17760, Note_off_c, 0, 56, 90
2, 17760, Note_off_c, 0, 58, 90
2, 17760, Note_on_c, 0, 56, 100
2, 17760, Note_on_c, 0, 58, 100
2, 17856, Note_off_c, 0, 56, 90
2, 17856, Note_off_c, 0, 58, 90
2, 17856, Note_on_c, 0, 56, 100
2, 17856, Note_on_c, 0, 58, 100
2, 17952, Note_off_c, 0, 56, 90
2, 17952, Note_off_c, 0, 58, 90
2, 17952, Note_on_c, 0, 56, 100
2, 17952, Note_on_c, 0, 58, 100
2, 18048, Note_off_c, 0, 56, 90
2, 18048, Note_off_c, 0, 58, 90
2, 18048, Note_on_c, 0, 56, 100
2, 18048, Note_on_c, 0, 58, 100
2, 18144, Note_off_c, 0, 56, 90
2, 18144, Note_off_c, 0, 58, 90
2, 18144, Note_on_c, 0, 56, 100
2, 18144, Note_on_c, 0, 58, 100
2, 18240, Note_off_c, 0, 56, 90
2, 18240, Note_off_c, 0, 58, 90
2, 18240, Note_on_c, 0, 56, 100
2, 18240, Note_on_c, 0, 58, 100
2, 18336, Note_off_c, 0, 56, 90
2, 18336, Note_off_c, 0, 58, 90
2, 18336, Note_on_c, 0, 58, 100
2, 18336, Note_on_c, 0, 56, 100
2, 18432, Note_off_c, 0, 58, 90
2, 18432, Note_off_c, 0, 56, 90
2, 18432, Note_on_c, 0, 57, 100
2, 18528, Note_off_c, 0, 57, 90
2, 18528, Note_on_c, 0, 57, 100
2, 18624, Note_off_c, 0, 57, 90
2, 18624, Note_on_c, 0, 57, 100
2, 18720, Note_off_c, 0, 57, 90
2, 18720, Note_on_c, 0, 57, 100
2, 18816, Note_off_c, 0, 57, 90
2, 18816, Note_on_c, 0, 57, 100
2, 18912, Note_off_c, 0, 57, 90
2, 18912, Note_on_c, 0, 57, 100
2, 19008, Note_off_c, 0, 57, 90
2, 19008, Note_on_c, 0, 57, 100
2, 19104, Note_off_c, 0, 57, 90
2, 19104, Note_on_c, 0, 57, 100
2, 19200, Note_off_c, 0, 57, 90
2, 19200, Note_on_c, 0, 56, 100
2, 19200, Note_on_c, 0, 58, 100
2, 19296, Note_off_c, 0, 56, 90
2, 19296, Note_off_c, 0, 58, 90
2, 19296, Note_on_c, 0, 56, 100
2, 19296, Note_on_c, 0, 58, 100
2, 19392, Note_off_c, 0, 56, 90
2, 19392, Note_off_c, 0, 58, 90
2, 19392, Note_on_c, 0, 56, 100
2, 19392, Note_on_c, 0, 58, 100
2, 19488, Note_off_c, 0, 56, 90
2, 19488, Note_off_c, 0, 58, 90
2, 19488, Note_on_c, 0, 56, 100
2, 19488, Note_on_c, 0, 58, 100
2, 19584, Note_off_c, 0, 56, 90
2, 19584, Note_off_c, 0, 58, 90
2, 19584, Note_on_c, 0, 56, 100
2, 19584, Note_on_c, 0, 58, 100
2, 19680, Note_off_c, 0, 56, 90
2, 19680, Note_off_c, 0, 58, 90
2, 19680, Note_on_c, 0, 56, 100
2, 19680, Note_on_c, 0, 58, 100
2, 19776, Note_off_c, 0, 56, 90
2, 19776, Note_off_c, 0, 58, 90
2, 19776, Note_on_c, 0, 56, 100
2, 19776, Note_on_c, 0, 58, 100
2, 19872, Note_off_c, 0, 56, 90
2, 19872, Note_off_c, 0, 58, 90
2, 19872, Note_on_c, 0, 58, 100
2, 19872, Note_on_c, 0, 56, 100
2, 19968, Note_off_c, 0, 58, 90
2, 19968, Note_off_c, 0, 56, 90
2, 19968, Note_on_c, 0, 57, 100
2, 20064, Note_off_c, 0, 57, 90
2, 20064, Note_on_c, 0, 57, 100
2, 20160, Note_off_c, 0, 57, 90
2, 20160, Note_on_c, 0, 57, 100
2, 20256, Note_off_c, 0, 57, 90
2, 20256, Note_on_c, 0, 57, 100
2, 20352, Note_off_c, 0, 57, 90
2, 20352, Note_on_c, 0, 56, 100
2, 20352, Note_on_c, 0, 58, 100
2, 20448, Note_off_c, 0, 56, 90
2, 20448, Note_off_c, 0, 58, 90
2, 20448, Note_on_c, 0, 56, 100
2, 20448, Note_on_c, 0, 58, 100
2, 20544, Note_off_c, 0, 56, 90
2, 20544, Note_off_c, 0, 58, 90
2, 20544, Note_on_c, 0, 56, 100
2, 20544, Note_on_c, 0, 58, 100
2, 20640, Note_off_c, 0, 56, 90
2, 20640, Note_off_c, 0, 58, 90
2, 20640, Note_on_c, 0, 58, 100
2, 20640, Note_on_c, 0, 56, 100
2, 20736, Note_off_c, 0, 58, 90
2, 20736, Note_off_c, 0, 56, 90
2, 20736, Note_on_c, 0, 57, 100
2, 20832, Note_off_c, 0, 57, 90
2, 20832, Note_on_c, 0, 57, 100
2, 20928, Note_off_c, 0, 57, 90
2, 20928, Note_on_c, 0, 56, 100
2, 21024, Note_off_c, 0, 56, 90
2, 21024, Note_on_c, 0, 58, 100
2, 21120, Note_off_c, 0, 58, 90
2, 21120, Note_on_c, 0, 55, 100
2, 21216, Note_off_c, 0, 55, 90
2, 21216, Note_on_c, 0, 59, 100
2, 21312, Note_off_c, 0, 59, 90
2, 21312, Note_on_c, 0, 54, 100
2, 21408, Note_off_c, 0, 54, 90
2, 21408, Note_on_c, 0, 60, 100
2, 21504, Note_off_c, 0, 60, 90
2, 21504, Note_on_c, 0, 57, 100
2, 21504, Note_on_c, 0, 61, 100
2, 21600, Note_off_c, 0, 57, 90
2, 21600, Note_off_c, 0, 61, 90
2, 21600, Note_on_c, 0, 60, 100
2, 21696, Note_off_c, 0, 60, 90
2, 21696, Note_on_c, 0, 59, 100
2, 21792, Note_off_c, 0, 59, 90
2, 21792, Note_on_c, 0, 58, 100
2, 21888, Note_off_c, 0, 58, 90
2, 21888, Note_on_c, 0, 57, 100
2, 21984, Note_off_c, 0, 57, 90
2, 21984, Note_on_c, 0, 58, 100
2, 22080, Note_off_c, 0, 58, 90
2, 22080, Note_on_c, 0, 59, 100
2, 22176, Note_off_c, 0, 59, 90
2, 22176, Note_on_c, 0, 60, 100
2, 22272, Note_off_c, 0, 60, 90
2, 22272, Note_on_c, 0, 57, 100
2, 22272, Note_on_c, 0, 61, 100
2, 22368, Note_off_c, 0, 57, 90
2, 22368, Note_off_c, 0, 61, 90
2, 22368, Note_on_c, 0, 60, 100
2, 22464, Note_off_c, 0, 60, 90
2, 22464, Note_on_c, 0, 59, 100
2, 22560, Note_off_c, 0, 59, 90
2, 22560, Note_on_c, 0, 58, 100
2, 22656, Note_off_c, 0, 58, 90
2, 22656, Note_on_c, 0, 57, 100
2, 22752, Note_off_c, 0, 57, 90
2, 22752, Note_on_c, 0, 59, 100
2, 22848, Note_off_c, 0, 59, 90
2, 22848, Note_on_c, 0, 60, 100
2, 22944, Note_off_c, 0, 60, 90
2, 22944, Note_on_c, 0, 61, 100
2, 23040, Note_off_c, 0, 61, 90
2, 23040, Note_on_c, 0, 62, 100
2, 23232, Note_off_c, 0, 62, 90
2, 23232, Note_on_c, 0, 62, 100
2, 23328, Note_off_c, 0, 62, 90
2, 23328, Note_on_c, 0, 62, 100
2, 23424, Note_off_c, 0, 62, 90
2, 23424, Note_on_c, 0, 62, 100
2, 23520, Note_off_c, 0, 62, 90
2, 23520, Note_on_c, 0, 62, 100
2, 23616, Note_off_c, 0, 62, 90
2, 23616, Note_on_c, 0, 62, 100
2, 23712, Note_off_c, 0, 62, 90
2, 23712, Note_on_c, 0, 62, 100
2, 23808, Note_off_c, 0, 62, 90
2, 23808, Note_on_c, 0, 61, 100
2, 23808, Note_on_c, 0, 63, 100
2, 23904, Note_off_c, 0, 61, 90
2, 23904, Note_off_c, 0, 63, 90
2, 23904, Note_on_c, 0, 61, 100
2, 23904, Note_on_c, 0, 63, 100
2, 24000, Note_off_c, 0, 61, 90
2, 24000, Note_off_c, 0, 63, 90
2, 24000, Note_on_c, 0, 61, 100
2, 24000, Note_on_c, 0, 63, 100
2, 24096, Note_off_c, 0, 61, 90
2, 24096, Note_off_c, 0, 63, 90
2, 24096, Note_on_c, 0, 61, 100
2, 24096, Note_on_c, 0, 63, 100
2, 24192, Note_off_c, 0, 61, 90
2, 24192, Note_off_c, 0, 63, 90
2, 24192, Note_on_c, 0, 61, 100
2, 24192, Note_on_c, 0, 63, 100
2, 24288, Note_off_c, 0, 61, 90
2, 24288, Note_off_c, 0, 63, 90
2, 24288, Note_on_c, 0, 61, 100
2, 24288, Note_on_c, 0, 63, 100
2, 24384, Note_off_c, 0, 61, 90
2, 24384, Note_off_c, 0, 63, 90
2, 24384, Note_on_c, 0, 61, 100
2, 24384, Note_on_c, 0, 63, 100
2, 24480, Note_off_c, 0, 61, 90
2, 24480, Note_off_c, 0, 63, 90
2, 24480, Note_on_c, 0, 63, 100
2, 24480, Note_on_c, 0, 61, 100
2, 24576, Note_off_c, 0, 63, 90
2, 24576, Note_off_c, 0, 61, 90
2, 24576, Note_on_c, 0, 62, 100
2, 24672, Note_off_c, 0, 62, 90
2, 24672, Note_on_c, 0, 62, 100
2, 24768, Note_off_c, 0, 62, 90
2, 24768, Note_on_c, 0, 62, 100
2, 24864, Note_off_c, 0, 62, 90
2, 24864, Note_on_c, 0, 62, 100
2, 24960, Note_off_c, 0, 62, 90
2, 24960, Note_on_c, 0, 62, 100
2, 25056, Note_off_c, 0, 62, 90
2, 25056, Note_on_c, 0, 62, 100
2, 25152, Note_off_c, 0, 62, 90
2, 25152, Note_on_c, 0, 62, 100
2, 25248, Note_off_c, 0, 62, 90
2, 25248, Note_on_c, 0, 62, 100
2, 25344, Note_off_c, 0, 62, 90
2, 25344, Note_on_c, 0, 61, 100
2, 25344, Note_on_c, 0, 63, 100
2, 25440, Note_off_c, 0, 61, 90
2, 25440, Note_off_c, 0, 63, 90
2, 25440, Note_on_c, 0, 61, 100
2, 25440, Note_on_c, 0, 63, 100
2, 25536, Note_off_c, 0, 61, 90
2, 25536, Note_off_c, 0, 63, 90
2, 25536, Note_on_c, 0, 61, 100
2, 25536, Note_on_c, 0, 63, 100
2, 25632, Note_off_c, 0, 61, 90
2, 25632, Note_off_c, 0, 63, 90
2, 25632, Note_on_c, 0, 61, 100
2, 25632, Note_on_c, 0, 63, 100
2, 25728, Note_off_c, 0, 61, 90
2, 25728, Note_off_c, 0, 63, 90
2, 25728, Note_on_c, 0, 61, 100
2, 25728, Note_on_c, 0, 63, 100
2, 25824, Note_off_c, 0, 61, 90
2, 25824, Note_off_c, 0, 63, 90
2, 25824, Note_on_c, 0, 61, 100
2, 25824, Note_on_c, 0, 63, 100
2, 25920, Note_off_c, 0, 61, 90
2, 25920, Note_off_c, 0, 63, 90
2, 25920, Note_on_c, 0, 61, 100
2, 25920, Note_on_c, 0, 63, 100
2, 26016, Note_off_c, 0, 61, 90
2, 26016, Note_off_c, 0, 63, 90
2, 26016, Note_on_c, 0, 63, 100
2, 26016, Note_on_c, 0, 61, 100
2, 26112, Note_off_c, 0, 63, 90
2, 26112, Note_off_c, 0, 61, 90
2, 26112, Note_on_c, 0, 62, 100
2, 26208, Note_off_c, 0, 62, 90
2, 26208, Note_on_c, 0, 62, 100
2, 26304, Note_off_c, 0, 62, 90
2, 26304, Note_on_c, 0, 62, 100
2, 26400, Note_off_c, 0, 62, 90
2, 26400, Note_on_c, 0, 62, 100
2, 26496, Note_off_c, 0, 62, 90
2, 26496, Note_on_c, 0, 61, 100
2, 26496, Note_on_c, 0, 63, 100
2, 26592, Note_off_c, 0, 61, 90
2, 26592, Note_off_c, 0, 63, 90
2, 26592, Note_on_c, 0, 61, 100
2, 26592, Note_on_c, 0, 63, 100
2, 26688, Note_off_c, 0, 61, 90
2, 26688, Note_off_c, 0, 63, 90
2, 26688, Note_on_c, 0, 61, 100
2, 26688, Note_on_c, 0, 63, 100
2, 26784, Note_off_c, 0, 61, 90
2, 26784, Note_off_c, 0, 63, 90
2, 26784, Note_on_c, 0, 63, 100
2, 26784, Note_on_c, 0, 61, 100
2, 26880, Note_off_c, 0, 63, 90
2, 26880, Note_off_c, 0, 61, 90
2, 26880, Note_on_c, 0, 62, 100
2, 26976, Note_off_c, 0, 62, 90
2, 26976, Note_on_c, 0, 62, 100
2, 27072, Note_off_c, 0, 62, 90
2, 27072, Note_on_c, 0, 61, 100
2, 27168, Note_off_c, 0, 61, 90
2, 27168, Note_on_c, 0, 63, 100
2, 27264, Note_off_c, 0, 63, 90
2, 27264, Note_on_c, 0, 60, 100
2, 27360, Note_off_c, 0, 60, 90
2, 27360, Note_on_c, 0, 64, 100
2, 27456, Note_off_c, 0, 64, 90
2, 27456, Note_on_c, 0, 59, 100
2, 27552, Note_off_c, 0, 59, 90
2, 27552, Note_on_c, 0, 65, 100
2, 27648, Note_off_c, 0, 65, 90
2, 27648, Note_on_c, 0, 62, 100
2, 27648, Note_on_c, 0, 66, 100
2, 27744, Note_off_c, 0, 62, 90
2, 27744, Note_off_c, 0, 66, 90
2, 27744, Note_on_c, 0, 65, 100
2, 27840, Note_off_c, 0, 65, 90
2, 27840, Note_on_c, 0, 64, 100
2, 27936, Note_off_c, 0, 64, 90
2, 27936, Note_on_c, 0, 63, 100
2, 28032, Note_off_c, 0, 63, 90
2, 28032, Note_on_c, 0, 62, 100
2, 28128, Note_off_c, 0, 62, 90
2, 28128, Note_on_c, 0, 63, 100
2, 28224, Note_off_c, 0, 63, 90
2, 28224, Note_on_c, 0, 64, 100
2, 28320, Note_off_c, 0, 64, 90
2, 28320, Note_on_c, 0, 65, 100
2, 28416, Note_off_c, 0, 65, 90
2, 28416, Note_on_c, 0, 62, 100
2, 28416, Note_on_c, 0, 66, 100
2, 28512, Note_off_c, 0, 62, 90
2, 28512, Note_off_c, 0, 66, 90
2, 28512, Note_on_c, 0, 65, 100
2, 28608, Note_off_c, 0, 65, 90
2, 28608, Note_on_c, 0, 64, 100
2, 28704, Note_off_c, 0, 64, 90
2, 28704, Note_on_c, 0, 63, 100
2, 28800, Note_off_c, 0, 63, 90
2, 28800, Note_on_c, 0, 62, 100
2, 28992, Note_off_c, 0, 62, 90
2, 29184, Note_on_c, 0, 74, 100
2, 29280, Note_off_c, 0, 74, 90
2, 29280, Note_on_c, 0, 73, 100
2, 29376, Note_off_c, 0, 73, 90
2, 29376, Note_on_c, 0, 72, 100
2, 29472, Note_off_c, 0, 72, 90
2, 29472, Note_on_c, 0, 71, 100
2, 29568, Note_off_c, 0, 71, 90
2, 29568, Note_on_c, 0, 70, 100
2, 29664, Note_off_c, 0, 70, 90
2, 29664, Note_on_c, 0, 75, 100
2, 29760, Note_off_c, 0, 75, 90
2, 29760, Note_on_c, 0, 74, 100
2, 29856, Note_off_c, 0, 74, 90
2, 29856, Note_on_c, 0, 73, 100
2, 29952, Note_off_c, 0, 73, 90
2, 29952, Note_on_c, 0, 74, 100
2, 30048, Note_off_c, 0, 74, 90
2, 30048, Note_on_c, 0, 73, 100
2, 30144, Note_off_c, 0, 73, 90
2, 30144, Note_on_c, 0, 72, 100
2, 30240, Note_off_c, 0, 72, 90
2, 30240, Note_on_c, 0, 71, 100
2, 30336, Note_off_c, 0, 71, 90
2, 30336, Note_on_c, 0, 70, 100
2, 30432, Note_off_c, 0, 70, 90
2, 30432, Note_on_c, 0, 71, 100
2, 30528, Note_off_c, 0, 71, 90
2, 30528, Note_on_c, 0, 72, 100
2, 30624, Note_off_c, 0, 72, 90
2, 30624, Note_on_c, 0, 73, 100
2, 30720, Note_off_c, 0, 73, 90
2, 30720, Note_on_c, 0, 74, 100
2, 30816, Note_off_c, 0, 74, 90
2, 30816, Note_on_c, 0, 73, 100
2, 30912, Note_off_c, 0, 73, 90
2, 30912, Note_on_c, 0, 72, 100
2, 31008, Note_off_c, 0, 72, 90
2, 31008, Note_on_c, 0, 71, 100
2, 31104, Note_off_c, 0, 71, 90
2, 31104, Note_on_c, 0, 72, 100
2, 31200, Note_off_c, 0, 72, 90
2, 31200, Note_on_c, 0, 71, 100
2, 31296, Note_off_c, 0, 71, 90
2, 31296, Note_on_c, 0, 70, 100
2, 31392, Note_off_c, 0, 70, 90
2, 31392, Note_on_c, 0, 69, 100
2, 31488, Note_off_c, 0, 69, 90
2, 31488, Note_on_c, 0, 70, 100
2, 31584, Note_off_c, 0, 70, 90
2, 31584, Note_on_c, 0, 71, 100
2, 31680, Note_off_c, 0, 71, 90
2, 31680, Note_on_c, 0, 72, 100
2, 31776, Note_off_c, 0, 72, 90
2, 31776, Note_on_c, 0, 73, 100
2, 31872, Note_off_c, 0, 73, 90
2, 31872, Note_on_c, 0, 72, 100
2, 31968, Note_off_c, 0, 72, 90
2, 31968, Note_on_c, 0, 73, 100
2, 32064, Note_off_c, 0, 73, 90
2, 32064, Note_on_c, 0, 74, 100
2, 32160, Note_off_c, 0, 74, 90
2, 32160, Note_on_c, 0, 75, 100
2, 32256, Note_off_c, 0, 75, 90
2, 32256, Note_on_c, 0, 76, 100
2, 32352, Note_off_c, 0, 76, 90
2, 32352, Note_on_c, 0, 75, 100
2, 32448, Note_off_c, 0, 75, 90
2, 32448, Note_on_c, 0, 74, 100
2, 32544, Note_off_c, 0, 74, 90
2, 32544, Note_on_c, 0, 73, 100
2, 32640, Note_off_c, 0, 73, 90
2, 32640, Note_on_c, 0, 74, 100
2, 32736, Note_off_c, 0, 74, 90
2, 32736, Note_on_c, 0, 73, 100
2, 32832, Note_off_c, 0, 73, 90
2, 32832, Note_on_c, 0, 72, 100
2, 32928, Note_off_c, 0, 72, 90
2, 32928, Note_on_c, 0, 71, 100
2, 33024, Note_off_c, 0, 71, 90
2, 33024, Note_on_c, 0, 72, 100
2, 33120, Note_off_c, 0, 72, 90
2, 33120, Note_on_c, 0, 71, 100
2, 33216, Note_off_c, 0, 71, 90
2, 33216, Note_on_c, 0, 70, 100
2, 33312, Note_off_c, 0, 70, 90
2, 33312, Note_on_c, 0, 69, 100
2, 33408, Note_off_c, 0, 69, 90
2, 33408, Note_on_c, 0, 68, 100
2, 33504, Note_off_c, 0, 68, 90
2, 33504, Note_on_c, 0, 67, 100
2, 33600, Note_off_c, 0, 67, 90
2, 33600, Note_on_c, 0, 66, 100
2, 33696, Note_off_c, 0, 66, 90
2, 33696, Note_on_c, 0, 65, 100
2, 33792, Note_off_c, 0, 65, 90
2, 33792, Note_on_c, 0, 64, 100
2, 33888, Note_off_c, 0, 64, 90
2, 33888, Note_on_c, 0, 65, 100
2, 33984, Note_off_c, 0, 65, 90
2, 33984, Note_on_c, 0, 64, 100
2, 34080, Note_off_c, 0, 64, 90
2, 34080, Note_on_c, 0, 63, 100
2, 34176, Note_off_c, 0, 63, 90
2, 34176, Note_on_c, 0, 64, 100
2, 34272, Note_off_c, 0, 64, 90
2, 34272, Note_on_c, 0, 65, 100
2, 34368, Note_off_c, 0, 65, 90
2, 34368, Note_on_c, 0, 64, 100
2, 34464, Note_off_c, 0, 64, 90
2, 34464, Note_on_c, 0, 63, 100
2, 34560, Note_off_c, 0, 63, 90
2, 34560, Note_on_c, 0, 64, 100
2, 34656, Note_off_c, 0, 64, 90
2, 34656, Note_on_c, 0, 65, 100
2, 34752, Note_off_c, 0, 65, 90
2, 34752, Note_on_c, 0, 64, 100
2, 34848, Note_off_c, 0, 64, 90
2, 34848, Note_on_c, 0, 63, 100
2, 34944, Note_off_c, 0, 63, 90
2, 34944, Note_on_c, 0, 64, 100
2, 35040, Note_off_c, 0, 64, 90
2, 35040, Note_on_c, 0, 65, 100
2, 35136, Note_off_c, 0, 65, 90
2, 35136, Note_on_c, 0, 64, 100
2, 35232, Note_off_c, 0, 64, 90
2, 35232, Note_on_c, 0, 63, 100
2, 35328, Note_off_c, 0, 63, 90
2, 35328, Note_on_c, 0, 64, 100
2, 35424, Note_off_c, 0, 64, 90
2, 35424, Note_on_c, 0, 65, 100
2, 35520, Note_off_c, 0, 65, 90
2, 35520, Note_on_c, 0, 64, 100
2, 35616, Note_off_c, 0, 64, 90
2, 35616, Note_on_c, 0, 63, 100
2, 35712, Note_off_c, 0, 63, 90
2, 35712, Note_on_c, 0, 64, 100
2, 35808, Note_off_c, 0, 64, 90
2, 35808, Note_on_c, 0, 65, 100
2, 35904, Note_off_c, 0, 65, 90
2, 35904, Note_on_c, 0, 64, 100
2, 36000, Note_off_c, 0, 64, 90
2, 36000, Note_on_c, 0, 63, 100
2, 36096, Note_off_c, 0, 63, 90
2, 36096, Note_on_c, 0, 64, 100
2, 36192, Note_off_c, 0, 64, 90
2, 36192, Note_on_c, 0, 65, 100
2, 36288, Note_off_c, 0, 65, 90
2, 36288, Note_on_c, 0, 64, 100
2, 36384, Note_off_c, 0, 64, 90
2, 36384, Note_on_c, 0, 63, 100
2, 36480, Note_off_c, 0, 63, 90
2, 36480, Note_on_c, 0, 64, 100
2, 36576, Note_off_c, 0, 64, 90
2, 36576, Note_on_c, 0, 65, 100
2, 36672, Note_off_c, 0, 65, 90
2, 36672, Note_on_c, 0, 64, 100
2, 36768, Note_off_c, 0, 64, 90
2, 36768, Note_on_c, 0, 63, 100
2, 36864, Note_off_c, 0, 63, 90
2, 36864, Note_on_c, 0, 64, 100
2, 36960, Note_off_c, 0, 64, 90
2, 36960, Note_on_c, 0, 63, 100
2, 37056, Note_off_c, 0, 63, 90
2, 37056, Note_on_c, 0, 62, 100
2, 37152, Note_off_c, 0, 62, 90
2, 37152, Note_on_c, 0, 61, 100
2, 37248, Note_off_c, 0, 61, 90
2, 37248, Note_on_c, 0, 62, 100
2, 37344, Note_off_c, 0, 62, 90
2, 37344, Note_on_c, 0, 61, 100
2, 37440, Note_off_c, 0, 61, 90
2, 37440, Note_on_c, 0, 60, 100
2, 37536, Note_off_c, 0, 60, 90
2, 37536, Note_on_c, 0, 59, 100
2, 37632, Note_off_c, 0, 59, 90
2, 38784, Note_on_c, 0, 76, 100
2, 38976, Note_off_c, 0, 76, 90
2, 38976, Note_on_c, 0, 72, 100
2, 39168, Note_off_c, 0, 72, 90
2, 39168, Note_on_c, 0, 69, 100
2, 39360, Note_off_c, 0, 69, 90
2, 39360, Note_on_c, 0, 65, 100
2, 39552, Note_off_c, 0, 65, 90
2, 39552, Note_on_c, 0, 69, 100
2, 39744, Note_off_c, 0, 69, 90
2, 39744, Note_on_c, 0, 72, 100
2, 39936, Note_off_c, 0, 72, 90
2, 39936, Note_on_c, 0, 76, 100
2, 40320, Note_off_c, 0, 76, 90
2, 40320, Note_on_c, 0, 88, 100
2, 40512, Note_off_c, 0, 88, 90
2, 40512, Note_on_c, 0, 84, 100
2, 40704, Note_off_c, 0, 84, 90
2, 40704, Note_on_c, 0, 81, 100
2, 40896, Note_off_c, 0, 81, 90
2, 40896, Note_on_c, 0, 77, 100
2, 41088, Note_off_c, 0, 77, 90
2, 41088, Note_on_c, 0, 81, 100
2, 41280, Note_off_c, 0, 81, 90
2, 41280, Note_on_c, 0, 84, 100
2, 41472, Note_off_c, 0, 84, 90
2, 41472, Note_on_c, 0, 88, 100
2, 41664, Note_off_c, 0, 88, 90
2, 43104, Note_on_c, 0, 48, 100
2, 43200, Note_off_c, 0, 48, 90
2, 43200, Note_on_c, 0, 49, 100
2, 43296, Note_off_c, 0, 49, 90
2, 43296, Note_on_c, 0, 50, 100
2, 43392, Note_off_c, 0, 50, 90
2, 43392, Note_on_c, 0, 52, 100
2, 43488, Note_off_c, 0, 52, 90
2, 43488, Note_on_c, 0, 53, 100
2, 43584, Note_off_c, 0, 53, 90
2, 43584, Note_on_c, 0, 53, 100
2, 43680, Note_off_c, 0, 53, 90
2, 43680, Note_on_c, 0, 54, 100
2, 43776, Note_off_c, 0, 54, 90
2, 43776, Note_on_c, 0, 76, 100
2, 43872, Note_off_c, 0, 76, 90
2, 43872, Note_on_c, 0, 77, 100
2, 43968, Note_off_c, 0, 77, 90
2, 43968, Note_on_c, 0, 76, 100
2, 44064, Note_off_c, 0, 76, 90
2, 44064, Note_on_c, 0, 75, 100
2, 44160, Note_off_c, 0, 75, 90
2, 44160, Note_on_c, 0, 76, 100
2, 44256, Note_off_c, 0, 76, 90
2, 44256, Note_on_c, 0, 77, 100
2, 44352, Note_off_c, 0, 77, 90
2, 44352, Note_on_c, 0, 76, 100
2, 44448, Note_off_c, 0, 76, 90
2, 44448, Note_on_c, 0, 75, 100
2, 44544, Note_off_c, 0, 75, 90
2, 44544, Note_on_c, 0, 76, 100
2, 44640, Note_off_c, 0, 76, 90
2, 44640, Note_on_c, 0, 75, 100
2, 44736, Note_off_c, 0, 75, 90
2, 44736, Note_on_c, 0, 74, 100
2, 44832, Note_off_c, 0, 74, 90
2, 44832, Note_on_c, 0, 73, 100
2, 44928, Note_off_c, 0, 73, 90
2, 44928, Note_on_c, 0, 72, 100
2, 45024, Note_off_c, 0, 72, 90
2, 45024, Note_on_c, 0, 77, 100
2, 45120, Note_off_c, 0, 77, 90
2, 45120, Note_on_c, 0, 76, 100
2, 45216, Note_off_c, 0, 76, 90
2, 45216, Note_on_c, 0, 75, 100
2, 45312, Note_off_c, 0, 75, 90
2, 45312, Note_on_c, 0, 76, 100
2, 45408, Note_off_c, 0, 76, 90
2, 45408, Note_on_c, 0, 75, 100
2, 45504, Note_off_c, 0, 75, 90
2, 45504, Note_on_c, 0, 74, 100
2, 45600, Note_off_c, 0, 74, 90
2, 45600, Note_on_c, 0, 73, 100
2, 45696, Note_off_c, 0, 73, 90
2, 45696, Note_on_c, 0, 72, 100
2, 45792, Note_off_c, 0, 72, 90
2, 45792, Note_on_c, 0, 73, 100
2, 45888, Note_off_c, 0, 73, 90
2, 45888, Note_on_c, 0, 74, 100
2, 45984, Note_off_c, 0, 74, 90
2, 45984, Note_on_c, 0, 75, 100
2, 46080, Note_off_c, 0, 75, 90
2, 46080, Note_on_c, 0, 76, 100
2, 46176, Note_off_c, 0, 76, 90
2, 46176, Note_on_c, 0, 75, 100
2, 46272, Note_off_c, 0, 75, 90
2, 46272, Note_on_c, 0, 74, 100
2, 46368, Note_off_c, 0, 74, 90
2, 46368, Note_on_c, 0, 73, 100
2, 46464, Note_off_c, 0, 73, 90
2, 46464, Note_on_c, 0, 72, 100
2, 46560, Note_off_c, 0, 72, 90
2, 46560, Note_on_c, 0, 77, 100
2, 46656, Note_off_c, 0, 77, 90
2, 46656, Note_on_c, 0, 76, 100
2, 46752, Note_off_c, 0, 76, 90
2, 46752, Note_on_c, 0, 75, 100
2, 46848, Note_off_c, 0, 75, 90
2, 46848, Note_on_c, 0, 76, 100
2, 46944, Note_off_c, 0, 76, 90
2, 46944, Note_on_c, 0, 75, 100
2, 47040, Note_off_c, 0, 75, 90
2, 47040, Note_on_c, 0, 74, 100
2, 47136, Note_off_c, 0, 74, 90
2, 47136, Note_on_c, 0, 73, 100
2, 47232, Note_off_c, 0, 73, 90
2, 47232, Note_on_c, 0, 72, 100
2, 47328, Note_off_c, 0, 72, 90
2, 47328, Note_on_c, 0, 73, 100
2, 47424, Note_off_c, 0, 73, 90
2, 47424, Note_on_c, 0, 74, 100
2, 47520, Note_off_c, 0, 74, 90
2, 47520, Note_on_c, 0, 75, 100
2, 47616, Note_off_c, 0, 75, 90
2, 47616, Note_on_c, 0, 76, 100
2, 47712, Note_off_c, 0, 76, 90
2, 47712, Note_on_c, 0, 75, 100
2, 47808, Note_off_c, 0, 75, 90
2, 47808, Note_on_c, 0, 74, 100
2, 47904, Note_off_c, 0, 74, 90
2, 47904, Note_on_c, 0, 73, 100
2, 48000, Note_off_c, 0, 73, 90
2, 48000, Note_on_c, 0, 74, 100
2, 48096, Note_off_c, 0, 74, 90
2, 48096, Note_on_c, 0, 73, 100
2, 48192, Note_off_c, 0, 73, 90
2, 48192, Note_on_c, 0, 72, 100
2, 48288, Note_off_c, 0, 72, 90
2, 48288, Note_on_c, 0, 71, 100
2, 48384, Note_off_c, 0, 71, 90
2, 48384, Note_on_c, 0, 72, 100
2, 48480, Note_off_c, 0, 72, 90
2, 48480, Note_on_c, 0, 73, 100
2, 48576, Note_off_c, 0, 73, 90
2, 48576, Note_on_c, 0, 74, 100
2, 48672, Note_off_c, 0, 74, 90
2, 48672, Note_on_c, 0, 75, 100
2, 48768, Note_off_c, 0, 75, 90
2, 48768, Note_on_c, 0, 76, 100
2, 48864, Note_off_c, 0, 76, 90
2, 48864, Note_on_c, 0, 77, 100
2, 48960, Note_off_c, 0, 77, 90
2, 48960, Note_on_c, 0, 76, 100
2, 49056, Note_off_c, 0, 76, 90
2, 49056, Note_on_c, 0, 75, 100
2, 49152, Note_off_c, 0, 75, 90
2, 49152, Note_on_c, 0, 76, 100
2, 49248, Note_off_c, 0, 76, 90
2, 49248, Note_on_c, 0, 75, 100
2, 49344, Note_off_c, 0, 75, 90
2, 49344, Note_on_c, 0, 74, 100
2, 49440, Note_off_c, 0, 74, 90
2, 49440, Note_on_c, 0, 73, 100
2, 49536, Note_off_c, 0, 73, 90
2, 49536, Note_on_c, 0, 74, 100
2, 49632, Note_off_c, 0, 74, 90
2, 49632, Note_on_c, 0, 73, 100
2, 49728, Note_off_c, 0, 73, 90
2, 49728, Note_on_c, 0, 72, 100
2, 49824, Note_off_c, 0, 72, 90
2, 49824, Note_on_c, 0, 71, 100
2, 49920, Note_off_c, 0, 71, 90
2, 49920, Note_on_c, 0, 72, 100
2, 50016, Note_off_c, 0, 72, 90
2, 50016, Note_on_c, 0, 73, 100
2, 50112, Note_off_c, 0, 73, 90
2, 50112, Note_on_c, 0, 74, 100
2, 50208, Note_off_c, 0, 74, 90
2, 50208, Note_on_c, 0, 75, 100
2, 50304, Note_off_c, 0, 75, 90
2, 50304, Note_on_c, 0, 76, 100
2, 50400, Note_off_c, 0, 76, 90
2, 50400, Note_on_c, 0, 78, 100
2, 50496, Note_off_c, 0, 78, 90
2, 50496, Note_on_c, 0, 79, 100
2, 50592, Note_off_c, 0, 79, 90
2, 50592, Note_on_c, 0, 80, 100
2, 50688, Note_off_c, 0, 80, 90
2, 50688, Note_on_c, 0, 81, 100
2, 50784, Note_off_c, 0, 81, 90
2, 50784, Note_on_c, 0, 80, 100
2, 50880, Note_off_c, 0, 80, 90
2, 50880, Note_on_c, 0, 79, 100
2, 50976, Note_off_c, 0, 79, 90
2, 50976, Note_on_c, 0, 78, 100
2, 51072, Note_off_c, 0, 78, 90
2, 51072, Note_on_c, 0, 77, 100
2, 51168, Note_off_c, 0, 77, 90
2, 51168, Note_on_c, 0, 82, 100
2, 51264, Note_off_c, 0, 82, 90
2, 51264, Note_on_c, 0, 81, 100
2, 51360, Note_off_c, 0, 81, 90
2, 51360, Note_on_c, 0, 80, 100
2, 51456, Note_off_c, 0, 80, 90
2, 51456, Note_on_c, 0, 81, 100
2, 51552, Note_off_c, 0, 81, 90
2, 51552, Note_on_c, 0, 80, 100
2, 51648, Note_off_c, 0, 80, 90
2, 51648, Note_on_c, 0, 79, 100
2, 51744, Note_off_c, 0, 79, 90
2, 51744, Note_on_c, 0, 78, 100
2, 51840, Note_off_c, 0, 78, 90
2, 51840, Note_on_c, 0, 77, 100
2, 51936, Note_off_c, 0, 77, 90
2, 51936, Note_on_c, 0, 78, 100
2, 52032, Note_off_c, 0, 78, 90
2, 52032, Note_on_c, 0, 79, 100
2, 52128, Note_off_c, 0, 79, 90
2, 52128, Note_on_c, 0, 80, 100
2, 52224, Note_off_c, 0, 80, 90
2, 52224, Note_on_c, 0, 81, 100
2, 52320, Note_off_c, 0, 81, 90
2, 52320, Note_on_c, 0, 80, 100
2, 52416, Note_off_c, 0, 80, 90
2, 52416, Note_on_c, 0, 79, 100
2, 52512, Note_off_c, 0, 79, 90
2, 52512, Note_on_c, 0, 78, 100
2, 52608, Note_off_c, 0, 78, 90
2, 52608, Note_on_c, 0, 77, 100
2, 52704, Note_off_c, 0, 77, 90
2, 52704, Note_on_c, 0, 82, 100
2, 52800, Note_off_c, 0, 82, 90
2, 52800, Note_on_c, 0, 81, 100
2, 52896, Note_off_c, 0, 81, 90
2, 52896, Note_on_c, 0, 80, 100
2, 52992, Note_off_c, 0, 80, 90
2, 52992, Note_on_c, 0, 81, 100
2, 53088, Note_off_c, 0, 81, 90
2, 53088, Note_on_c, 0, 80, 100
2, 53184, Note_off_c, 0, 80, 90
2, 53184, Note_on_c, 0, 79, 100
2, 53280, Note_off_c, 0, 79, 90
2, 53280, Note_on_c, 0, 78, 100
2, 53376, Note_off_c, 0, 78, 90
2, 53376, Note_on_c, 0, 77, 100
2, 53472, Note_off_c, 0, 77, 90
2, 53472, Note_on_c, 0, 78, 100
2, 53568, Note_off_c, 0, 78, 90
2, 53568, Note_on_c, 0, 79, 100
2, 53664, Note_off_c, 0, 79, 90
2, 53664, Note_on_c, 0, 80, 100
2, 53760, Note_off_c, 0, 80, 90
2, 53760, Note_on_c, 0, 81, 100
2, 53856, Note_off_c, 0, 81, 90
2, 53856, Note_on_c, 0, 80, 100
2, 53952, Note_off_c, 0, 80, 90
2, 53952, Note_on_c, 0, 79, 100
2, 54048, Note_off_c, 0, 79, 90
2, 54048, Note_on_c, 0, 78, 100
2, 54144, Note_off_c, 0, 78, 90
2, 54144, Note_on_c, 0, 79, 100
2, 54240, Note_off_c, 0, 79, 90
2, 54240, Note_on_c, 0, 78, 100
2, 54336, Note_off_c, 0, 78, 90
2, 54336, Note_on_c, 0, 77, 100
2, 54432, Note_off_c, 0, 77, 90
2, 54432, Note_on_c, 0, 76, 100
2, 54528, Note_off_c, 0, 76, 90
2, 54528, Note_on_c, 0, 77, 100
2, 54624, Note_off_c, 0, 77, 90
2, 54624, Note_on_c, 0, 78, 100
2, 54720, Note_off_c, 0, 78, 90
2, 54720, Note_on_c, 0, 79, 100
2, 54816, Note_off_c, 0, 79, 90
2, 54816, Note_on_c, 0, 80, 100
2, 54912, Note_off_c, 0, 80, 90
2, 54912, Note_on_c, 0, 81, 100
2, 55008, Note_off_c, 0, 81, 90
2, 55008, Note_on_c, 0, 82, 100
2, 55104, Note_off_c, 0, 82, 90
2, 55104, Note_on_c, 0, 81, 100
2, 55200, Note_off_c, 0, 81, 90
2, 55200, Note_on_c, 0, 80, 100
2, 55296, Note_off_c, 0, 80, 90
2, 55296, Note_on_c, 0, 81, 100
2, 55392, Note_off_c, 0, 81, 90
2, 55392, Note_on_c, 0, 80, 100
2, 55488, Note_off_c, 0, 80, 90
2, 55488, Note_on_c, 0, 79, 100
2, 55584, Note_off_c, 0, 79, 90
2, 55584, Note_on_c, 0, 78, 100
2, 55680, Note_off_c, 0, 78, 90
2, 55680, Note_on_c, 0, 77, 100
2, 55776, Note_off_c, 0, 77, 90
2, 55776, Note_on_c, 0, 78, 100
2, 55872, Note_off_c, 0, 78, 90
2, 55872, Note_on_c, 0, 79, 100
2, 55968, Note_off_c, 0, 79, 90
2, 55968, Note_on_c, 0, 80, 100
2, 56064, Note_off_c, 0, 80, 90
2, 56064, Note_on_c, 0, 81, 100
2, 56160, Note_off_c, 0, 81, 90
2, 56160, Note_on_c, 0, 83, 100
2, 56256, Note_off_c, 0, 83, 90
2, 56256, Note_on_c, 0, 84, 100
2, 56352, Note_off_c, 0, 84, 90
2, 56352, Note_on_c, 0, 86, 100
2, 56448, Note_off_c, 0, 86, 90
2, 56448, Note_on_c, 0, 88, 100
2, 56544, Note_off_c, 0, 88, 90
2, 56544, Note_on_c, 0, 89, 100
2, 56640, Note_off_c, 0, 89, 90
2, 56640, Note_on_c, 0, 88, 100
2, 56736, Note_off_c, 0, 88, 90
2, 56736, Note_on_c, 0, 87, 100
2, 56832, Note_off_c, 0, 87, 90
2, 56832, Note_on_c, 0, 88, 100
2, 56928, Note_off_c, 0, 88, 90
2, 56928, Note_on_c, 0, 87, 100
2, 57024, Note_off_c, 0, 87, 90
2, 57024, Note_on_c, 0, 86, 100
2, 57120, Note_off_c, 0, 86, 90
2, 57120, Note_on_c, 0, 85, 100
2, 57216, Note_off_c, 0, 85, 90
2, 57216, Note_on_c, 0, 84, 100
2, 57312, Note_off_c, 0, 84, 90
2, 57312, Note_on_c, 0, 89, 100
2, 57408, Note_off_c, 0, 89, 90
2, 57408, Note_on_c, 0, 88, 100
2, 57504, Note_off_c, 0, 88, 90
2, 57504, Note_on_c, 0, 87, 100
2, 57600, Note_off_c, 0, 87, 90
2, 57600, Note_on_c, 0, 88, 100
2, 57696, Note_off_c, 0, 88, 90
2, 57696, Note_on_c, 0, 87, 100
2, 57792, Note_off_c, 0, 87, 90
2, 57792, Note_on_c, 0, 86, 100
2, 57888, Note_off_c, 0, 86, 90
2, 57888, Note_on_c, 0, 85, 100
2, 57984, Note_off_c, 0, 85, 90
2, 57984, Note_on_c, 0, 84, 100
2, 58080, Note_off_c, 0, 84, 90
2, 58080, Note_on_c, 0, 85, 100
2, 58176, Note_off_c, 0, 85, 90
2, 58176, Note_on_c, 0, 86, 100
2, 58272, Note_off_c, 0, 86, 90
2, 58272, Note_on_c, 0, 87, 100
2, 58368, Note_off_c, 0, 87, 90
2, 58368, Note_on_c, 0, 88, 100
2, 58464, Note_off_c, 0, 88, 90
2, 58464, Note_on_c, 0, 87, 100
2, 58560, Note_off_c, 0, 87, 90
2, 58560, Note_on_c, 0, 86, 100
2, 58656, Note_off_c, 0, 86, 90
2, 58656, Note_on_c, 0, 85, 100
2, 58752, Note_off_c, 0, 85, 90
2, 58752, Note_on_c, 0, 84, 100
2, 58848, Note_off_c, 0, 84, 90
2, 58848, Note_on_c, 0, 89, 100
2, 58944, Note_off_c, 0, 89, 90
2, 58944, Note_on_c, 0, 88, 100
2, 59040, Note_off_c, 0, 88, 90
2, 59040, Note_on_c, 0, 87, 100
2, 59136, Note_off_c, 0, 87, 90
2, 59136, Note_on_c, 0, 88, 100
2, 59232, Note_off_c, 0, 88, 90
2, 59232, Note_on_c, 0, 87, 100
2, 59328, Note_off_c, 0, 87, 90
2, 59328, Note_on_c, 0, 86, 100
2, 59424, Note_off_c, 0, 86, 90
2, 59424, Note_on_c, 0, 85, 100
2, 59520, Note_off_c, 0, 85, 90
2, 59520, Note_on_c, 0, 84, 100
2, 59616, Note_off_c, 0, 84, 90
2, 59616, Note_on_c, 0, 85, 100
2, 59712, Note_off_c, 0, 85, 90
2, 59712, Note_on_c, 0, 86, 100
2, 59808, Note_off_c, 0, 86, 90
2, 59808, Note_on_c, 0, 87, 100
2, 59904, Note_off_c, 0, 87, 90
2, 59904, Note_on_c, 0, 88, 100
2, 60096, Note_off_c, 0, 88, 90
2, 60096, Note_on_c, 0, 68, 100
2, 60192, Note_off_c, 0, 68, 90
2, 60192, Note_on_c, 0, 69, 100
2, 60288, Note_off_c, 0, 69, 90
2, 60288, Note_on_c, 0, 70, 100
2, 60384, Note_off_c, 0, 70, 90
2, 60384, Note_on_c, 0, 71, 100
2, 60480, Note_off_c, 0, 71, 90
2, 60480, Note_on_c, 0, 72, 100
2, 60576, Note_off_c, 0, 72, 90
2, 60576, Note_on_c, 0, 73, 100
2, 60672, Note_off_c, 0, 73, 90
2, 60672, Note_on_c, 0, 74, 100
2, 60768, Note_off_c, 0, 74, 90
2, 60768, Note_on_c, 0, 73, 100
2, 60864, Note_off_c, 0, 73, 90
2, 60864, Note_on_c, 0, 72, 100
2, 60960, Note_off_c, 0, 72, 90
2, 60960, Note_on_c, 0, 71, 100
2, 61056, Note_off_c, 0, 71, 90
2, 61056, Note_on_c, 0, 72, 100
2, 61152, Note_off_c, 0, 72, 90
2, 61152, Note_on_c, 0, 71, 100
2, 61248, Note_off_c, 0, 71, 90
2, 61248, Note_on_c, 0, 70, 100
2, 61344, Note_off_c, 0, 70, 90
2, 61344, Note_on_c, 0, 69, 100
2, 61440, Note_off_c, 0, 69, 90
2, 61440, Note_on_c, 0, 68, 100
2, 61536, Note_off_c, 0, 68, 90
2, 61536, Note_on_c, 0, 69, 100
2, 61632, Note_off_c, 0, 69, 90
2, 61632, Note_on_c, 0, 70, 100
2, 61728, Note_off_c, 0, 70, 90
2, 61728, Note_on_c, 0, 71, 100
2, 61824, Note_off_c, 0, 71, 90
2, 61824, Note_on_c, 0, 72, 100
2, 61920, Note_off_c, 0, 72, 90
2, 61920, Note_on_c, 0, 73, 100
2, 62016, Note_off_c, 0, 73, 90
2, 62016, Note_on_c, 0, 74, 100
2, 62112, Note_off_c, 0, 74, 90
2, 62112, Note_on_c, 0, 75, 100
2, 62208, Note_off_c, 0, 75, 90
2, 62208, Note_on_c, 0, 76, 100
2, 62304, Note_off_c, 0, 76, 90
2, 62304, Note_on_c, 0, 77, 100
2, 62400, Note_off_c, 0, 77, 90
2, 62400, Note_on_c, 0, 76, 100
2, 62496, Note_off_c, 0, 76, 90
2, 62496, Note_on_c, 0, 75, 100
2, 62592, Note_off_c, 0, 75, 90
2, 62592, Note_on_c, 0, 76, 100
2, 62688, Note_off_c, 0, 76, 90
2, 62688, Note_on_c, 0, 77, 100
2, 62784, Note_off_c, 0, 77, 90
2, 62784, Note_on_c, 0, 76, 100
2, 62880, Note_off_c, 0, 76, 90
2, 62880, Note_on_c, 0, 75, 100
2, 62976, Note_off_c, 0, 75, 90
2, 62976, Note_on_c, 0, 76, 100
2, 63168, Note_off_c, 0, 76, 90
2, 63168, Note_on_c, 0, 80, 100
2, 63264, Note_off_c, 0, 80, 90
2, 63264, Note_on_c, 0, 81, 100
2, 63360, Note_off_c, 0, 81, 90
2, 63360, Note_on_c, 0, 82, 100
2, 63456, Note_off_c, 0, 82, 90
2, 63456, Note_on_c, 0, 83, 100
2, 63552, Note_off_c, 0, 83, 90
2, 63552, Note_on_c, 0, 84, 100
2, 63648, Note_off_c, 0, 84, 90
2, 63648, Note_on_c, 0, 85, 100
2, 63744, Note_off_c, 0, 85, 90
2, 63744, Note_on_c, 0, 86, 100
2, 63840, Note_off_c, 0, 86, 90
2, 63840, Note_on_c, 0, 85, 100
2, 63936, Note_off_c, 0, 85, 90
2, 63936, Note_on_c, 0, 84, 100
2, 64032, Note_off_c, 0, 84, 90
2, 64032, Note_on_c, 0, 83, 100
2, 64128, Note_off_c, 0, 83, 90
2, 64128, Note_on_c, 0, 84, 100
2, 64224, Note_off_c, 0, 84, 90
2, 64224, Note_on_c, 0, 83, 100
2, 64320, Note_off_c, 0, 83, 90
2, 64320, Note_on_c, 0, 82, 100
2, 64416, Note_off_c, 0, 82, 90
2, 64416, Note_on_c, 0, 81, 100
2, 64512, Note_off_c, 0, 81, 90
2, 64512, Note_on_c, 0, 80, 100
2, 64608, Note_off_c, 0, 80, 90
2, 64608, Note_on_c, 0, 81, 100
2, 64704, Note_off_c, 0, 81, 90
2, 64704, Note_on_c, 0, 82, 100
2, 64800, Note_off_c, 0, 82, 90
2, 64800, Note_on_c, 0, 83, 100
2, 64896, Note_off_c, 0, 83, 90
2, 64896, Note_on_c, 0, 84, 100
2, 64992, Note_off_c, 0, 84, 90
2, 64992, Note_on_c, 0, 85, 100
2, 65088, Note_off_c, 0, 85, 90
2, 65088, Note_on_c, 0, 86, 100
2, 65184, Note_off_c, 0, 86, 90
2, 65184, Note_on_c, 0, 87, 100
2, 65280, Note_off_c, 0, 87, 90
2, 65280, Note_on_c, 0, 88, 100
2, 65376, Note_off_c, 0, 88, 90
2, 65376, Note_on_c, 0, 89, 100
2, 65472, Note_off_c, 0, 89, 90
2, 65472, Note_on_c, 0, 88, 100
2, 65568, Note_off_c, 0, 88, 90
2, 65568, Note_on_c, 0, 87, 100
2, 65664, Note_off_c, 0, 87, 90
2, 65664, Note_on_c, 0, 88, 100
2, 65760, Note_off_c, 0, 88, 90
2, 65760, Note_on_c, 0, 90, 100
2, 65856, Note_off_c, 0, 90, 90
2, 65856, Note_on_c, 0, 91, 100
2, 65952, Note_off_c, 0, 91, 90
2, 65952, Note_on_c, 0, 92, 100
2, 66048, Note_off_c, 0, 92, 90
2, 66048, Note_on_c, 0, 93, 100
2, 66144, Note_off_c, 0, 93, 90
2, 66144, Note_on_c, 0, 92, 100
2, 66240, Note_off_c, 0, 92, 90
2, 66240, Note_on_c, 0, 91, 100
2, 66336, Note_off_c, 0, 91, 90
2, 66336, Note_on_c, 0, 90, 100
2, 66432, Note_off_c, 0, 90, 90
2, 66432, Note_on_c, 0, 91, 100
2, 66528, Note_off_c, 0, 91, 90
2, 66528, Note_on_c, 0, 90, 100
2, 66624, Note_off_c, 0, 90, 90
2, 66624, Note_on_c, 0, 89, 100
2, 66720, Note_off_c, 0, 89, 90
2, 66720, Note_on_c, 0, 88, 100
2, 66816, Note_off_c, 0, 88, 90
2, 66816, Note_on_c, 0, 89, 100
2, 66912, Note_off_c, 0, 89, 90
2, 66912, Note_on_c, 0, 88, 100
2, 67008, Note_off_c, 0, 88, 90
2, 67008, Note_on_c, 0, 87, 100
2, 67104, Note_off_c, 0, 87, 90
2, 67104, Note_on_c, 0, 86, 100
2, 67200, Note_off_c, 0, 86, 90
2, 67200, Note_on_c, 0, 85, 100
2, 67296, Note_off_c, 0, 85, 90
2, 67296, Note_on_c, 0, 84, 100
2, 67392, Note_off_c, 0, 84, 90
2, 67392, Note_on_c, 0, 83, 100
2, 67488, Note_off_c, 0, 83, 90
2, 67488, Note_on_c, 0, 82, 100
2, 67584, Note_off_c, 0, 82, 90
2, 67584, Note_on_c, 0, 81, 100
2, 67680, Note_off_c, 0, 81, 90
2, 67680, Note_on_c, 0, 80, 100
2, 67776, Note_off_c, 0, 80, 90
2, 67776, Note_on_c, 0, 79, 100
2, 67872, Note_off_c, 0, 79, 90
2, 67872, Note_on_c, 0, 78, 100
2, 67968, Note_off_c, 0, 78, 90
2, 67968, Note_on_c, 0, 79, 100
2, 68064, Note_off_c, 0, 79, 90
2, 68064, Note_on_c, 0, 78, 100
2, 68160, Note_off_c, 0, 78, 90
2, 68160, Note_on_c, 0, 77, 100
2, 68256, Note_off_c, 0, 77, 90
2, 68256, Note_on_c, 0, 76, 100
2, 68352, Note_off_c, 0, 76, 90
2, 68352, Note_on_c, 0, 77, 100
2, 68448, Note_off_c, 0, 77, 90
2, 68448, Note_on_c, 0, 76, 100
2, 68544, Note_off_c, 0, 76, 90
2, 68544, Note_on_c, 0, 75, 100
2, 68640, Note_off_c, 0, 75, 90
2, 68640, Note_on_c, 0, 74, 100
2, 68736, Note_off_c, 0, 74, 90
2, 68736, Note_on_c, 0, 73, 100
2, 68832, Note_off_c, 0, 73, 90
2, 68832, Note_on_c, 0, 72, 100
2, 68928, Note_off_c, 0, 72, 90
2, 68928, Note_on_c, 0, 71, 100
2, 69024, Note_off_c, 0, 71, 90
2, 69024, Note_on_c, 0, 70, 100
2, 69120, Note_off_c, 0, 70, 90
2, 69120, Note_on_c, 0, 69, 100
2, 69216, Note_off_c, 0, 69, 90
2, 69216, Note_on_c, 0, 70, 100
2, 69312, Note_off_c, 0, 70, 90
2, 69312, Note_on_c, 0, 69, 100
2, 69408, Note_off_c, 0, 69, 90
2, 69408, Note_on_c, 0, 68, 100
2, 69504, Note_off_c, 0, 68, 90
2, 69504, Note_on_c, 0, 69, 100
2, 69600, Note_off_c, 0, 69, 90
2, 69600, Note_on_c, 0, 70, 100
2, 69696, Note_off_c, 0, 70, 90
2, 69696, Note_on_c, 0, 69, 100
2, 69792, Note_off_c, 0, 69, 90
2, 69792, Note_on_c, 0, 68, 100
2, 69888, Note_off_c, 0, 68, 90
2, 69888, Note_on_c, 0, 69, 100
2, 69984, Note_off_c, 0, 69, 90
2, 69984, Note_on_c, 0, 70, 100
2, 70080, Note_off_c, 0, 70, 90
2, 70080, Note_on_c, 0, 69, 100
2, 70176, Note_off_c, 0, 69, 90
2, 70176, Note_on_c, 0, 68, 100
2, 70272, Note_off_c, 0, 68, 90
2, 70272, Note_on_c, 0, 69, 100
2, 70368, Note_off_c, 0, 69, 90
2, 70368, Note_on_c, 0, 71, 100
2, 70464, Note_off_c, 0, 71, 90
2, 70464, Note_on_c, 0, 72, 100
2, 70560, Note_off_c, 0, 72, 90
2, 70560, Note_on_c, 0, 74, 100
2, 70656, Note_off_c, 0, 74, 90
2, 70656, Note_on_c, 0, 76, 100
2, 70752, Note_off_c, 0, 76, 90
2, 70752, Note_on_c, 0, 77, 100
2, 70848, Note_off_c, 0, 77, 90
2, 70848, Note_on_c, 0, 76, 100
2, 70944, Note_off_c, 0, 76, 90
2, 70944, Note_on_c, 0, 75, 100
2, 71040, Note_off_c, 0, 75, 90
2, 71040, Note_on_c, 0, 76, 100
2, 71136, Note_off_c, 0, 76, 90
2, 71136, Note_on_c, 0, 77, 100
2, 71232, Note_off_c, 0, 77, 90
2, 71232, Note_on_c, 0, 76, 100
2, 71328, Note_off_c, 0, 76, 90
2, 71328, Note_on_c, 0, 75, 100
2, 71424, Note_off_c, 0, 75, 90
2, 71424, Note_on_c, 0, 76, 100
2, 71520, Note_off_c, 0, 76, 90
2, 71520, Note_on_c, 0, 77, 100
2, 71616, Note_off_c, 0, 77, 90
2, 71616, Note_on_c, 0, 76, 100
2, 71712, Note_off_c, 0, 76, 90
2, 71712, Note_on_c, 0, 75, 100
2, 71808, Note_off_c, 0, 75, 90
2, 71808, Note_on_c, 0, 76, 100
2, 71904, Note_off_c, 0, 76, 90
2, 71904, Note_on_c, 0, 78, 100
2, 72000, Note_off_c, 0, 78, 90
2, 72000, Note_on_c, 0, 79, 100
2, 72096, Note_off_c, 0, 79, 90
2, 72096, Note_on_c, 0, 80, 100
2, 72192, Note_off_c, 0, 80, 90
2, 72192, Note_on_c, 0, 72, 100
2, 72192, Note_on_c, 0, 81, 100
2, 72384, Note_off_c, 0, 72, 90
2, 72384, Note_off_c, 0, 81, 90
2, 72576, Note_on_c, 0, 64, 100
2, 72672, Note_off_c, 0, 64, 90
2, 72672, Note_on_c, 0, 66, 100
2, 72768, Note_off_c, 0, 66, 90
2, 72768, Note_on_c, 0, 67, 100
2, 72864, Note_off_c, 0, 67, 90
2, 72864, Note_on_c, 0, 68, 100
2, 72960, Note_off_c, 0, 68, 90
2, 72960, Note_on_c, 0, 69, 100
2, 73056, Note_off_c, 0, 69, 90
2, 73056, Note_on_c, 0, 70, 100
2, 73152, Note_off_c, 0, 70, 90
2, 73152, Note_on_c, 0, 71, 100
2, 73248, Note_off_c, 0, 71, 90
2, 73248, Note_on_c, 0, 72, 100
2, 73344, Note_off_c, 0, 72, 90
2, 73344, Note_on_c, 0, 73, 100
2, 73440, Note_off_c, 0, 73, 90
2, 73440, Note_on_c, 0, 74, 100
2, 73536, Note_off_c, 0, 74, 90
2, 73536, Note_on_c, 0, 75, 100
2, 73632, Note_off_c, 0, 75, 90
2, 73632, Note_on_c, 0, 76, 100
2, 73728, Note_off_c, 0, 76, 90
2, 73728, Note_on_c, 0, 77, 100
2, 73824, Note_off_c, 0, 77, 90
2, 73824, Note_on_c, 0, 78, 100
2, 73920, Note_off_c, 0, 78, 90
2, 73920, Note_on_c, 0, 79, 100
2, 74016, Note_off_c, 0, 79, 90
2, 74016, Note_on_c, 0, 80, 100
2, 74112, Note_off_c, 0, 80, 90
2, 74112, Note_on_c, 0, 81, 100
2, 74208, Note_off_c, 0, 81, 90
2, 74208, Note_on_c, 0, 82, 100
2, 74304, Note_off_c, 0, 82, 90
2, 74304, Note_on_c, 0, 83, 100
2, 74400, Note_off_c, 0, 83, 90
2, 74400, Note_on_c, 0, 84, 100
2, 74496, Note_off_c, 0, 84, 90
2, 74496, Note_on_c, 0, 85, 100
2, 74592, Note_off_c, 0, 85, 90
2, 74592, Note_on_c, 0, 86, 100
2, 74688, Note_off_c, 0, 86, 90
2, 74688, Note_on_c, 0, 87, 100
2, 74784, Note_off_c, 0, 87, 90
2, 74784, Note_on_c, 0, 88, 100
2, 74880, Note_off_c, 0, 88, 90
2, 74880, Note_on_c, 0, 89, 100
2, 74976, Note_off_c, 0, 89, 90
2, 74976, Note_on_c, 0, 90, 100
2, 75072, Note_off_c, 0, 90, 90
2, 75072, Note_on_c, 0, 91, 100
2, 75168, Note_off_c, 0, 91, 90
2, 75168, Note_on_c, 0, 92, 100
2, 75264, Note_off_c, 0, 92, 90
2, 75264, Note_on_c, 0, 93, 100
2, 75456, Note_off_c, 0, 93, 90
2, 75648, Note_on_c, 0, 84, 100
2, 75648, Note_on_c, 0, 93, 100
2, 75840, Note_off_c, 0, 84, 90
2, 75840, Note_off_c, 0, 93, 90
2, 76032, Note_on_c, 0, 57, 100
2, 76224, Note_off_c, 0, 57, 90
2, 76416, Note_on_c, 0, 72, 100
2, 76416, Note_on_c, 0, 81, 100
2, 76608, Note_off_c, 0, 72, 90
2, 76608, Note_off_c, 0, 81, 90
2, 76800, Note_on_c, 0, 45, 100
2, 76992, Note_off_c, 0, 45, 90
2, 76992, End_track
3, 0, Start_track
3, 0, Title_t, "Accompaniment"
3, 0, Control_c, 1, 0, 0
3, 0, Program_c, 1, 48
3, 0, Control_c, 1, 7, 69
3, 0, Control_c, 1, 10, 23
3, 0, Control_c, 1, 91, 127
3, 0, Control_c, 1, 93, 0
3, 0, Note_on_c, 1, 74, 100
3, 0, Note_on_c, 1, 68, 100
3, 0, Note_on_c, 1, 64, 100
3, 192, Note_off_c, 1, 74, 90
3, 192, Note_off_c, 1, 68, 90
3, 192, Note_off_c, 1, 64, 90
3, 1536, Note_on_c, 1, 52, 100
3, 1536, Note_on_c, 1, 56, 100
3, 1536, Note_on_c, 1, 62, 100
3, 1728, Note_off_c, 1, 52, 90
3, 1728, Note_off_c, 1, 56, 90
3, 1728, Note_off_c, 1, 62, 90
3, 4608, Note_on_c, 1, 45, 100
3, 4608, Note_on_c, 1, 52, 100
3, 4608, Note_on_c, 1, 57, 100
3, 4800, Note_off_c, 1, 45, 90
3, 4800, Note_off_c, 1, 52, 90
3, 4800, Note_off_c, 1, 57, 90
3, 5376, Note_on_c, 1, 45, 100
3, 5376, Note_on_c, 1, 52, 100
3, 5376, Note_on_c, 1, 57, 100
3, 5568, Note_off_c, 1, 45, 90
3, 5568, Note_off_c, 1, 52, 90
3, 5568, Note_off_c, 1, 57, 90
3, 5760, Note_on_c, 1, 50, 100
3, 5760, Note_on_c, 1, 54, 100
3, 5760, Note_on_c, 1, 57, 100
3, 5952, Note_off_c, 1, 50, 90
3, 5952, Note_off_c, 1, 54, 90
3, 5952, Note_off_c, 1, 57, 90
3, 6144, Note_on_c, 1, 45, 100
3, 6144, Note_on_c, 1, 52, 100
3, 6144, Note_on_c, 1, 57, 100
3, 6336, Note_off_c, 1, 45, 90
3, 6336, Note_off_c, 1, 52, 90
3, 6336, Note_off_c, 1, 57, 90
3, 6912, Note_on_c, 1, 45, 100
3, 6912, Note_on_c, 1, 52, 100
3, 6912, Note_on_c, 1, 57, 100
3, 7104, Note_off_c, 1, 45, 90
3, 7104, Note_off_c, 1, 52, 90
3, 7104, Note_off_c, 1, 57, 90
3, 7296, Note_on_c, 1, 50, 100
3, 7296, Note_on_c, 1, 54, 100
3, 7296, Note_on_c, 1, 57, 100
3, 7488, Note_off_c, 1, 50, 90
3, 7488, Note_off_c, 1, 54, 90
3, 7488, Note_off_c, 1, 57, 90
3, 7680, Note_on_c, 1, 45, 100
3, 7680, Note_on_c, 1, 52, 100
3, 7680, Note_on_c, 1, 57, 100
3, 7872, Note_off_c, 1, 45, 90
3, 7872, Note_off_c, 1, 52, 90
3, 7872, Note_off_c, 1, 57, 90
3, 8064, Note_on_c, 1, 53, 100
3, 8064, Note_on_c, 1, 57, 100
3, 8256, Note_off_c, 1, 53, 90
3, 8256, Note_off_c, 1, 57, 90
3, 8448, Note_on_c, 1, 52, 100
3, 8448, Note_on_c, 1, 57, 100
3, 8640, Note_off_c, 1, 52, 90
3, 8640, Note_off_c, 1, 57, 90
3, 8832, Note_on_c, 1, 50, 100
3, 8832, Note_on_c, 1, 56, 100
3, 8832, Note_on_c, 1, 59, 100
3, 9024, Note_off_c, 1, 50, 90
3, 9024, Note_off_c, 1, 56, 90
3, 9024, Note_off_c, 1, 59, 90
3, 9216, Note_on_c, 1, 48, 100
3, 9216, Note_on_c, 1, 57, 100
3, 9408, Note_off_c, 1, 48, 90
3, 9408, Note_off_c, 1, 57, 90
3, 9600, Note_on_c, 1, 53, 100
3, 9600, Note_on_c, 1, 57, 100
3, 9792, Note_off_c, 1, 53, 90
3, 9792, Note_off_c, 1, 57, 90
3, 9984, Note_on_c, 1, 52, 100
3, 9984, Note_on_c, 1, 57, 100
3, 10176, Note_off_c, 1, 52, 90
3, 10176, Note_off_c, 1, 57, 90
3, 10368, Note_on_c, 1, 50, 100
3, 10368, Note_on_c, 1, 56, 100
3, 10368, Note_on_c, 1, 59, 100
3, 10560, Note_off_c, 1, 50, 90
3, 10560, Note_off_c, 1, 56, 90
3, 10560, Note_off_c, 1, 59, 90
3, 10752, Note_on_c, 1, 49, 100
3, 10752, Note_on_c, 1, 57, 100
3, 10752, Note_on_c, 1, 59, 100
3, 10944, Note_off_c, 1, 49, 90
3, 10944, Note_off_c, 1, 57, 90
3, 10944, Note_off_c, 1, 59, 90
3, 11136, Note_on_c, 1, 50, 100
3, 11136, Note_on_c, 1, 53, 100
3, 11136, Note_on_c, 1, 57, 100
3, 11328, Note_off_c, 1, 50, 90
3, 11328, Note_off_c, 1, 53, 90
3, 11328, Note_off_c, 1, 57, 90
3, 11520, Note_on_c, 1, 53, 100
3, 11520, Note_on_c, 1, 57, 100
3, 11520, Note_on_c, 1, 62, 100
3, 11712, Note_off_c, 1, 53, 90
3, 11712, Note_off_c, 1, 57, 90
3, 11712, Note_off_c, 1, 62, 90
3, 11904, Note_on_c, 1, 50, 100
3, 11904, Note_on_c, 1, 55, 100
3, 11904, Note_on_c, 1, 59, 100
3, 12096, Note_off_c, 1, 50, 90
3, 12096, Note_off_c, 1, 55, 90
3, 12096, Note_off_c, 1, 59, 90
3, 12288, Note_on_c, 1, 53, 100
3, 12288, Note_on_c, 1, 57, 100
3, 12288, Note_on_c, 1, 62, 100
3, 12480, Note_off_c, 1, 53, 90
3, 12480, Note_off_c, 1, 57, 90
3, 12480, Note_off_c, 1, 62, 90
3, 13056, Note_on_c, 1, 53, 100
3, 13056, Note_on_c, 1, 57, 100
3, 13056, Note_on_c, 1, 62, 100
3, 13248, Note_off_c, 1, 53, 90
3, 13248, Note_off_c, 1, 57, 90
3, 13248, Note_off_c, 1, 62, 90
3, 13440, Note_on_c, 1, 50, 100
3, 13440, Note_on_c, 1, 55, 100
3, 13440, Note_on_c, 1, 59, 100
3, 13632, Note_off_c, 1, 50, 90
3, 13632, Note_off_c, 1, 55, 90
3, 13632, Note_off_c, 1, 59, 90
3, 13824, Note_on_c, 1, 53, 100
3, 13824, Note_on_c, 1, 57, 100
3, 13824, Note_on_c, 1, 62, 100
3, 14016, Note_off_c, 1, 53, 90
3, 14016, Note_off_c, 1, 57, 90
3, 14016, Note_off_c, 1, 62, 90
3, 14208, Note_on_c, 1, 55, 100
3, 14208, Note_on_c, 1, 58, 100
3, 14208, Note_on_c, 1, 62, 100
3, 14400, Note_off_c, 1, 55, 90
3, 14400, Note_off_c, 1, 58, 90
3, 14400, Note_off_c, 1, 62, 90
3, 14592, Note_on_c, 1, 53, 100
3, 14592, Note_on_c, 1, 57, 100
3, 14592, Note_on_c, 1, 62, 100
3, 14784, Note_off_c, 1, 53, 90
3, 14784, Note_off_c, 1, 57, 90
3, 14784, Note_off_c, 1, 62, 90
3, 14976, Note_on_c, 1, 52, 100
3, 14976, Note_on_c, 1, 55, 100
3, 14976, Note_on_c, 1, 57, 100
3, 14976, Note_on_c, 1, 61, 100
3, 15168, Note_off_c, 1, 52, 90
3, 15168, Note_off_c, 1, 55, 90
3, 15168, Note_off_c, 1, 57, 90
3, 15168, Note_off_c, 1, 61, 90
3, 15360, Note_on_c, 1, 50, 100
3, 15360, Note_on_c, 1, 53, 100
3, 15360, Note_on_c, 1, 57, 100
3, 15552, Note_off_c, 1, 50, 90
3, 15552, Note_off_c, 1, 53, 90
3, 15552, Note_off_c, 1, 57, 90
3, 15744, Note_on_c, 1, 50, 100
3, 15744, Note_on_c, 1, 55, 100
3, 15744, Note_on_c, 1, 58, 100
3, 15936, Note_off_c, 1, 50, 90
3, 15936, Note_off_c, 1, 55, 90
3, 15936, Note_off_c, 1, 58, 90
3, 16128, Note_on_c, 1, 50, 100
3, 16128, Note_on_c, 1, 53, 100
3, 16128, Note_on_c, 1, 57, 100
3, 16320, Note_off_c, 1, 50, 90
3, 16320, Note_off_c, 1, 53, 90
3, 16320, Note_off_c, 1, 57, 90
3, 16512, Note_on_c, 1, 49, 100
3, 16512, Note_on_c, 1, 55, 100
3, 16512, Note_on_c, 1, 57, 100
3, 16704, Note_off_c, 1, 49, 90
3, 16704, Note_off_c, 1, 55, 90
3, 16704, Note_off_c, 1, 57, 90
3, 16896, Note_on_c, 1, 50, 100
3, 16896, Note_on_c, 1, 53, 100
3, 16896, Note_on_c, 1, 57, 100
3, 17088, Note_off_c, 1, 50, 90
3, 17088, Note_off_c, 1, 53, 90
3, 17088, Note_off_c, 1, 57, 90
3, 21504, Note_on_c, 1, 53, 100
3, 23040, Note_off_c, 1, 53, 90
3, 23040, Note_on_c, 1, 54, 100
3, 23040, Note_on_c, 1, 57, 100
3, 23232, Note_off_c, 1, 54, 90
3, 23232, Note_off_c, 1, 57, 90
3, 27648, Note_on_c, 1, 58, 100
3, 28800, Note_off_c, 1, 58, 90
3, 28800, Note_on_c, 1, 58, 100
3, 28896, Note_off_c, 1, 58, 90
3, 28896, Note_on_c, 1, 59, 100
3, 28992, Note_off_c, 1, 59, 90
3, 28992, Note_on_c, 1, 60, 100
3, 29088, Note_off_c, 1, 60, 90
3, 29088, Note_on_c, 1, 61, 100
3, 29184, Note_off_c, 1, 61, 90
3, 29184, Note_on_c, 1, 55, 100
3, 29184, Note_on_c, 1, 58, 100
3, 29184, Note_on_c, 1, 62, 100
3, 29376, Note_off_c, 1, 55, 90
3, 29376, Note_off_c, 1, 58, 90
3, 29376, Note_off_c, 1, 62, 90
3, 29952, Note_on_c, 1, 58, 100
3, 29952, Note_on_c, 1, 62, 100
3, 29952, Note_on_c, 1, 67, 100
3, 30144, Note_off_c, 1, 58, 90
3, 30144, Note_off_c, 1, 62, 90
3, 30144, Note_off_c, 1, 67, 90
3, 30336, Note_on_c, 1, 60, 100
3, 30336, Note_on_c, 1, 63, 100
3, 30336, Note_on_c, 1, 67, 100
3, 30528, Note_off_c, 1, 60, 90
3, 30528, Note_off_c, 1, 63, 90
3, 30528, Note_off_c, 1, 67, 90
3, 30720, Note_on_c, 1, 58, 100
3, 30720, Note_on_c, 1, 62, 100
3, 30720, Note_on_c, 1, 67, 100
3, 30912, Note_off_c, 1, 58, 90
3, 30912, Note_off_c, 1, 62, 90
3, 30912, Note_off_c, 1, 67, 90
3, 31104, Note_on_c, 1, 54, 100
3, 31104, Note_on_c, 1, 60, 100
3, 31104, Note_on_c, 1, 63, 100
3, 31296, Note_off_c, 1, 54, 90
3, 31296, Note_off_c, 1, 60, 90
3, 31296, Note_off_c, 1, 63, 90
3, 31488, Note_on_c, 1, 55, 100
3, 31488, Note_on_c, 1, 58, 100
3, 31488, Note_on_c, 1, 62, 100
3, 31680, Note_off_c, 1, 55, 90
3, 31680, Note_off_c, 1, 58, 90
3, 31680, Note_off_c, 1, 62, 90
3, 31872, Note_on_c, 1, 53, 100
3, 31872, Note_on_c, 1, 57, 100
3, 31872, Note_on_c, 1, 62, 100
3, 32064, Note_off_c, 1, 53, 90
3, 32064, Note_off_c, 1, 57, 90
3, 32064, Note_off_c, 1, 62, 90
3, 32256, Note_on_c, 1, 52, 100
3, 32256, Note_on_c, 1, 56, 100
3, 32256, Note_on_c, 1, 62, 100
3, 32448, Note_off_c, 1, 52, 90
3, 32448, Note_off_c, 1, 56, 90
3, 32448, Note_off_c, 1, 62, 90
3, 34176, Note_on_c, 1, 52, 100
3, 34368, Note_off_c, 1, 52, 90
3, 34368, Note_on_c, 1, 48, 100
3, 34560, Note_off_c, 1, 48, 90
3, 34560, Note_on_c, 1, 45, 100
3, 34752, Note_off_c, 1, 45, 90
3, 34752, Note_on_c, 1, 41, 100
3, 34944, Note_off_c, 1, 41, 90
3, 34944, Note_on_c, 1, 45, 100
3, 35136, Note_off_c, 1, 45, 90
3, 35136, Note_on_c, 1, 48, 100
3, 35328, Note_off_c, 1, 48, 90
3, 35328, Note_on_c, 1, 52, 100
3, 35712, Note_off_c, 1, 52, 90
3, 35712, Note_on_c, 1, 52, 100
3, 35904, Note_off_c, 1, 52, 90
3, 35904, Note_on_c, 1, 48, 100
3, 36096, Note_off_c, 1, 48, 90
3, 36096, Note_on_c, 1, 45, 100
3, 36288, Note_off_c, 1, 45, 90
3, 36288, Note_on_c, 1, 41, 100
3, 36480, Note_off_c, 1, 41, 90
3, 36480, Note_on_c, 1, 45, 100
3, 36672, Note_off_c, 1, 45, 90
3, 36672, Note_on_c, 1, 48, 100
3, 36864, Note_off_c, 1, 48, 90
3, 36864, Note_on_c, 1, 52, 100
3, 37056, Note_off_c, 1, 52, 90
3, 37632, Note_on_c, 1, 60, 100
3, 37728, Note_off_c, 1, 60, 90
3, 37728, Note_on_c, 1, 59, 100
3, 37824, Note_off_c, 1, 59, 90
3, 37824, Note_on_c, 1, 58, 100
3, 37920, Note_off_c, 1, 58, 90
3, 37920, Note_on_c, 1, 57, 100
3, 38016, Note_off_c, 1, 57, 90
3, 38016, Note_on_c, 1, 56, 100
3, 38112, Note_off_c, 1, 56, 90
3, 38112, Note_on_c, 1, 55, 100
3, 38208, Note_off_c, 1, 55, 90
3, 38208, Note_on_c, 1, 54, 100
3, 38304, Note_off_c, 1, 54, 90
3, 38304, Note_on_c, 1, 53, 100
3, 38400, Note_off_c, 1, 53, 90
3, 38400, Note_on_c, 1, 52, 100
3, 38496, Note_off_c, 1, 52, 90
3, 38496, Note_on_c, 1, 53, 100
3, 38592, Note_off_c, 1, 53, 90
3, 38592, Note_on_c, 1, 52, 100
3, 38688, Note_off_c, 1, 52, 90
3, 38688, Note_on_c, 1, 51, 100
3, 38784, Note_off_c, 1, 51, 90
3, 38784, Note_on_c, 1, 52, 100
3, 38880, Note_off_c, 1, 52, 90
3, 38880, Note_on_c, 1, 53, 100
3, 38976, Note_off_c, 1, 53, 90
3, 38976, Note_on_c, 1, 52, 100
3, 39072, Note_off_c, 1, 52, 90
3, 39072, Note_on_c, 1, 51, 100
3, 39168, Note_off_c, 1, 51, 90
3, 39168, Note_on_c, 1, 52, 100
3, 39264, Note_off_c, 1, 52, 90
3, 39264, Note_on_c, 1, 53, 100
3, 39360, Note_off_c, 1, 53, 90
3, 39360, Note_on_c, 1, 52, 100
3, 39456, Note_off_c, 1, 52, 90
3, 39456, Note_on_c, 1, 51, 100
3, 39552, Note_off_c, 1, 51, 90
3, 39552, Note_on_c, 1, 52, 100
3, 39648, Note_off_c, 1, 52, 90
3, 39648, Note_on_c, 1, 53, 100
3, 39744, Note_off_c, 1, 53, 90
3, 39744, Note_on_c, 1, 52, 100
3, 39840, Note_off_c, 1, 52, 90
3, 39840, Note_on_c, 1, 51, 100
3, 39936, Note_off_c, 1, 51, 90
3, 39936, Note_on_c, 1, 52, 100
3, 40032, Note_off_c, 1, 52, 90
3, 40032, Note_on_c, 1, 53, 100
3, 40128, Note_off_c, 1, 53, 90
3, 40128, Note_on_c, 1, 52, 100
3, 40224, Note_off_c, 1, 52, 90
3, 40224, Note_on_c, 1, 51, 100
3, 40320, Note_off_c, 1, 51, 90
3, 40320, Note_on_c, 1, 52, 100
3, 40416, Note_off_c, 1, 52, 90
3, 40416, Note_on_c, 1, 53, 100
3, 40512, Note_off_c, 1, 53, 90
3, 40512, Note_on_c, 1, 52, 100
3, 40608, Note_off_c, 1, 52, 90
3, 40608, Note_on_c, 1, 51, 100
3, 40704, Note_off_c, 1, 51, 90
3, 40704, Note_on_c, 1, 52, 100
3, 40800, Note_off_c, 1, 52, 90
3, 40800, Note_on_c, 1, 53, 100
3, 40896, Note_off_c, 1, 53, 90
3, 40896, Note_on_c, 1, 52, 100
3, 40992, Note_off_c, 1, 52, 90
3, 40992, Note_on_c, 1, 51, 100
3, 41088, Note_off_c, 1, 51, 90
3, 41088, Note_on_c, 1, 52, 100
3, 41184, Note_off_c, 1, 52, 90
3, 41184, Note_on_c, 1, 53, 100
3, 41280, Note_off_c, 1, 53, 90
3, 41280, Note_on_c, 1, 52, 100
3, 41376, Note_off_c, 1, 52, 90
3, 41376, Note_on_c, 1, 51, 100
3, 41472, Note_off_c, 1, 51, 90
3, 41472, Note_on_c, 1, 52, 100
3, 41568, Note_off_c, 1, 52, 90
3, 41568, Note_on_c, 1, 53, 100
3, 41664, Note_off_c, 1, 53, 90
3, 41664, Note_on_c, 1, 54, 100
3, 41760, Note_off_c, 1, 54, 90
3, 41760, Note_on_c, 1, 55, 100
3, 41856, Note_off_c, 1, 55, 90
3, 41856, Note_on_c, 1, 56, 100
3, 41952, Note_off_c, 1, 56, 90
3, 41952, Note_on_c, 1, 57, 100
3, 42048, Note_off_c, 1, 57, 90
3, 42048, Note_on_c, 1, 58, 100
3, 42144, Note_off_c, 1, 58, 90
3, 42144, Note_on_c, 1, 59, 100
3, 42240, Note_off_c, 1, 59, 90
3, 42240, Note_on_c, 1, 60, 100
3, 42336, Note_off_c, 1, 60, 90
3, 42336, Note_on_c, 1, 61, 100
3, 42432, Note_off_c, 1, 61, 90
3, 42432, Note_on_c, 1, 62, 100
3, 42528, Note_off_c, 1, 62, 90
3, 42528, Note_on_c, 1, 63, 100
3, 42624, Note_off_c, 1, 63, 90
3, 42624, Note_on_c, 1, 64, 100
3, 42720, Note_off_c, 1, 64, 90
3, 42720, Note_on_c, 1, 65, 100
3, 42816, Note_off_c, 1, 65, 90
3, 42816, Note_on_c, 1, 66, 100
3, 42912, Note_off_c, 1, 66, 90
3, 42912, Note_on_c, 1, 67, 100
3, 43008, Note_off_c, 1, 67, 90
3, 43008, Note_on_c, 1, 68, 100
3, 43104, Note_off_c, 1, 68, 90
3, 44544, Note_on_c, 1, 57, 100
3, 44544, Note_on_c, 1, 60, 100
3, 44544, Note_on_c, 1, 64, 100
3, 44736, Note_off_c, 1, 57, 90
3, 44736, Note_off_c, 1, 60, 90
3, 44736, Note_off_c, 1, 64, 90
3, 45120, Note_on_c, 1, 64, 100
3, 45120, Note_on_c, 1, 60, 100
3, 45120, Note_on_c, 1, 57, 100
3, 45312, Note_off_c, 1, 64, 90
3, 45312, Note_off_c, 1, 60, 90
3, 45312, Note_off_c, 1, 57, 90
3, 45312, Note_on_c, 1, 57, 100
3, 45312, Note_on_c, 1, 60, 100
3, 45312, Note_on_c, 1, 64, 100
3, 45504, Note_off_c, 1, 57, 90
3, 45504, Note_off_c, 1, 60, 90
3, 45504, Note_off_c, 1, 64, 90
3, 45696, Note_on_c, 1, 54, 100
3, 45696, Note_on_c, 1, 57, 100
3, 45696, Note_on_c, 1, 62, 100
3, 45888, Note_off_c, 1, 54, 90
3, 45888, Note_off_c, 1, 57, 90
3, 45888, Note_off_c, 1, 62, 90
3, 46080, Note_on_c, 1, 57, 100
3, 46080, Note_on_c, 1, 60, 100
3, 46080, Note_on_c, 1, 64, 100
3, 46272, Note_off_c, 1, 57, 90
3, 46272, Note_off_c, 1, 60, 90
3, 46272, Note_off_c, 1, 64, 90
3, 46656, Note_on_c, 1, 64, 100
3, 46656, Note_on_c, 1, 60, 100
3, 46656, Note_on_c, 1, 57, 100
3, 46848, Note_off_c, 1, 64, 90
3, 46848, Note_off_c, 1, 60, 90
3, 46848, Note_off_c, 1, 57, 90
3, 46848, Note_on_c, 1, 57, 100
3, 46848, Note_on_c, 1, 60, 100
3, 46848, Note_on_c, 1, 64, 100
3, 47040, Note_off_c, 1, 57, 90
3, 47040, Note_off_c, 1, 60, 90
3, 47040, Note_off_c, 1, 64, 90
3, 47232, Note_on_c, 1, 54, 100
3, 47232, Note_on_c, 1, 57, 100
3, 47232, Note_on_c, 1, 62, 100
3, 47424, Note_off_c, 1, 54, 90
3, 47424, Note_off_c, 1, 57, 90
3, 47424, Note_off_c, 1, 62, 90
3, 47616, Note_on_c, 1, 57, 100
3, 47616, Note_on_c, 1, 60, 100
3, 47616, Note_on_c, 1, 64, 100
3, 47808, Note_off_c, 1, 57, 90
3, 47808, Note_off_c, 1, 60, 90
3, 47808, Note_off_c, 1, 64, 90
3, 48000, Note_on_c, 1, 53, 100
3, 48000, Note_on_c, 1, 57, 100
3, 48000, Note_on_c, 1, 62, 100
3, 48192, Note_off_c, 1, 53, 90
3, 48192, Note_off_c, 1, 57, 90
3, 48192, Note_off_c, 1, 62, 90
3, 48384, Note_on_c, 1, 52, 100
3, 48384, Note_on_c, 1, 57, 100
3, 48384, Note_on_c, 1, 60, 100
3, 48576, Note_off_c, 1, 52, 90
3, 48576, Note_off_c, 1, 57, 90
3, 48576, Note_off_c, 1, 60, 90
3, 48768, Note_on_c, 1, 50, 100
3, 48768, Note_on_c, 1, 56, 100
3, 48768, Note_on_c, 1, 59, 100
3, 48960, Note_off_c, 1, 50, 90
3, 48960, Note_off_c, 1, 56, 90
3, 48960, Note_off_c, 1, 59, 90
3, 49152, Note_on_c, 1, 48, 100
3, 49152, Note_on_c, 1, 52, 100
3, 49152, Note_on_c, 1, 57, 100
3, 49344, Note_off_c, 1, 48, 90
3, 49344, Note_off_c, 1, 52, 90
3, 49344, Note_off_c, 1, 57, 90
3, 49536, Note_on_c, 1, 53, 100
3, 49536, Note_on_c, 1, 57, 100
3, 49536, Note_on_c, 1, 62, 100
3, 49728, Note_off_c, 1, 53, 90
3, 49728, Note_off_c, 1, 57, 90
3, 49728, Note_off_c, 1, 62, 90
3, 49920, Note_on_c, 1, 52, 100
3, 49920, Note_on_c, 1, 57, 100
3, 49920, Note_on_c, 1, 60, 100
3, 50112, Note_off_c, 1, 52, 90
3, 50112, Note_off_c, 1, 57, 90
3, 50112, Note_off_c, 1, 60, 90
3, 50304, Note_on_c, 1, 50, 100
3, 50304, Note_on_c, 1, 56, 100
3, 50304, Note_on_c, 1, 59, 100
3, 50496, Note_off_c, 1, 50, 90
3, 50496, Note_off_c, 1, 56, 90
3, 50496, Note_off_c, 1, 59, 90
3, 50688, Note_on_c, 1, 49, 100
3, 50688, Note_on_c, 1, 55, 100
3, 50688, Note_on_c, 1, 57, 100
3, 50880, Note_off_c, 1, 49, 90
3, 50880, Note_off_c, 1, 55, 90
3, 50880, Note_off_c, 1, 57, 90
3, 51072, Note_on_c, 1, 50, 100
3, 51072, Note_on_c, 1, 53, 100
3, 51072, Note_on_c, 1, 57, 100
3, 51264, Note_off_c, 1, 50, 90
3, 51264, Note_off_c, 1, 53, 90
3, 51264, Note_off_c, 1, 57, 90
3, 51456, Note_on_c, 1, 53, 100
3, 51456, Note_on_c, 1, 57, 100
3, 51456, Note_on_c, 1, 62, 100
3, 51648, Note_off_c, 1, 53, 90
3, 51648, Note_off_c, 1, 57, 90
3, 51648, Note_off_c, 1, 62, 90
3, 51840, Note_on_c, 1, 47, 100
3, 51840, Note_on_c, 1, 50, 100
3, 51840, Note_on_c, 1, 55, 100
3, 52032, Note_off_c, 1, 47, 90
3, 52032, Note_off_c, 1, 50, 90
3, 52032, Note_off_c, 1, 55, 90
3, 52224, Note_on_c, 1, 50, 100
3, 52224, Note_on_c, 1, 53, 100
3, 52224, Note_on_c, 1, 57, 100
3, 52416, Note_off_c, 1, 50, 90
3, 52416, Note_off_c, 1, 53, 90
3, 52416, Note_off_c, 1, 57, 90
3, 52800, Note_on_c, 1, 57, 100
3, 52800, Note_on_c, 1, 53, 100
3, 52800, Note_on_c, 1, 50, 100
3, 52992, Note_off_c, 1, 57, 90
3, 52992, Note_off_c, 1, 53, 90
3, 52992, Note_off_c, 1, 50, 90
3, 52992, Note_on_c, 1, 50, 100
3, 52992, Note_on_c, 1, 53, 100
3, 52992, Note_on_c, 1, 57, 100
3, 53184, Note_off_c, 1, 50, 90
3, 53184, Note_off_c, 1, 53, 90
3, 53184, Note_off_c, 1, 57, 90
3, 53376, Note_on_c, 1, 50, 100
3, 53376, Note_on_c, 1, 53, 100
3, 53376, Note_on_c, 1, 57, 100
3, 53568, Note_off_c, 1, 50, 90
3, 53568, Note_off_c, 1, 53, 90
3, 53568, Note_off_c, 1, 57, 90
3, 53760, Note_on_c, 1, 50, 100
3, 53760, Note_on_c, 1, 53, 100
3, 53760, Note_on_c, 1, 57, 100
3, 53952, Note_off_c, 1, 50, 90
3, 53952, Note_off_c, 1, 53, 90
3, 53952, Note_off_c, 1, 57, 90
3, 54144, Note_on_c, 1, 58, 100
3, 54144, Note_on_c, 1, 62, 100
3, 54144, Note_on_c, 1, 67, 100
3, 54336, Note_off_c, 1, 58, 90
3, 54336, Note_off_c, 1, 62, 90
3, 54336, Note_off_c, 1, 67, 90
3, 54528, Note_on_c, 1, 57, 100
3, 54528, Note_on_c, 1, 62, 100
3, 54528, Note_on_c, 1, 65, 100
3, 54720, Note_off_c, 1, 57, 90
3, 54720, Note_off_c, 1, 62, 90
3, 54720, Note_off_c, 1, 65, 90
3, 54912, Note_on_c, 1, 55, 100
3, 54912, Note_on_c, 1, 61, 100
3, 54912, Note_on_c, 1, 64, 100
3, 55104, Note_off_c, 1, 55, 90
3, 55104, Note_off_c, 1, 61, 90
3, 55104, Note_off_c, 1, 64, 90
3, 55296, Note_on_c, 1, 53, 100
3, 55296, Note_on_c, 1, 57, 100
3, 55296, Note_on_c, 1, 62, 100
3, 55488, Note_off_c, 1, 53, 90
3, 55488, Note_off_c, 1, 57, 90
3, 55488, Note_off_c, 1, 62, 90
3, 55680, Note_on_c, 1, 50, 100
3, 55680, Note_on_c, 1, 53, 100
3, 55680, Note_on_c, 1, 57, 100
3, 55872, Note_off_c, 1, 50, 90
3, 55872, Note_off_c, 1, 53, 90
3, 55872, Note_off_c, 1, 57, 90
3, 56064, Note_on_c, 1, 48, 100
3, 56064, Note_on_c, 1, 52, 100
3, 56064, Note_on_c, 1, 57, 100
3, 56256, Note_off_c, 1, 48, 90
3, 56256, Note_off_c, 1, 52, 90
3, 56256, Note_off_c, 1, 57, 90
3, 56448, Note_on_c, 1, 47, 100
3, 56448, Note_on_c, 1, 50, 100
3, 56448, Note_on_c, 1, 56, 100
3, 56640, Note_off_c, 1, 47, 90
3, 56640, Note_off_c, 1, 50, 90
3, 56640, Note_off_c, 1, 56, 90
3, 56832, Note_on_c, 1, 45, 100
3, 56832, Note_on_c, 1, 48, 100
3, 56832, Note_on_c, 1, 52, 100
3, 57024, Note_off_c, 1, 45, 90
3, 57024, Note_off_c, 1, 48, 90
3, 57024, Note_off_c, 1, 52, 90
3, 57024, Note_on_c, 1, 45, 100
3, 57024, Note_on_c, 1, 48, 100
3, 57024, Note_on_c, 1, 52, 100
3, 57216, Note_off_c, 1, 45, 90
3, 57216, Note_off_c, 1, 48, 90
3, 57216, Note_off_c, 1, 52, 90
3, 57600, Note_on_c, 1, 57, 100
3, 57600, Note_on_c, 1, 60, 100
3, 57600, Note_on_c, 1, 64, 100
3, 57792, Note_off_c, 1, 57, 90
3, 57792, Note_off_c, 1, 60, 90
3, 57792, Note_off_c, 1, 64, 90
3, 57984, Note_on_c, 1, 54, 100
3, 57984, Note_on_c, 1, 57, 100
3, 57984, Note_on_c, 1, 62, 100
3, 58176, Note_off_c, 1, 54, 90
3, 58176, Note_off_c, 1, 57, 90
3, 58176, Note_off_c, 1, 62, 90
3, 58368, Note_on_c, 1, 57, 100
3, 58368, Note_on_c, 1, 60, 100
3, 58368, Note_on_c, 1, 64, 100
3, 58560, Note_off_c, 1, 57, 90
3, 58560, Note_off_c, 1, 60, 90
3, 58560, Note_off_c, 1, 64, 90
3, 58560, Note_on_c, 1, 57, 100
3, 58560, Note_on_c, 1, 60, 100
3, 58560, Note_on_c, 1, 64, 100
3, 58752, Note_off_c, 1, 57, 90
3, 58752, Note_off_c, 1, 60, 90
3, 58752, Note_off_c, 1, 64, 90
3, 59136, Note_on_c, 1, 57, 100
3, 59136, Note_on_c, 1, 60, 100
3, 59136, Note_on_c, 1, 64, 100
3, 59328, Note_off_c, 1, 57, 90
3, 59328, Note_off_c, 1, 60, 90
3, 59328, Note_off_c, 1, 64, 90
3, 59520, Note_on_c, 1, 54, 100
3, 59520, Note_on_c, 1, 57, 100
3, 59520, Note_on_c, 1, 62, 100
3, 59712, Note_off_c, 1, 54, 90
3, 59712, Note_off_c, 1, 57, 90
3, 59712, Note_off_c, 1, 62, 90
3, 59904, Note_on_c, 1, 57, 100
3, 59904, Note_on_c, 1, 60, 100
3, 59904, Note_on_c, 1, 64, 100
3, 60096, Note_off_c, 1, 57, 90
3, 60096, Note_off_c, 1, 60, 90
3, 60096, Note_off_c, 1, 64, 90
3, 60288, Note_on_c, 1, 57, 100
3, 60480, Note_off_c, 1, 57, 90
3, 60480, Note_on_c, 1, 53, 100
3, 60672, Note_off_c, 1, 53, 90
3, 60672, Note_on_c, 1, 50, 100
3, 60864, Note_off_c, 1, 50, 90
3, 60864, Note_on_c, 1, 47, 100
3, 61056, Note_off_c, 1, 47, 90
3, 61056, Note_on_c, 1, 50, 100
3, 61248, Note_off_c, 1, 50, 90
3, 61248, Note_on_c, 1, 53, 100
3, 61440, Note_off_c, 1, 53, 90
3, 61440, Note_on_c, 1, 52, 100
3, 61632, Note_off_c, 1, 52, 90
3, 62208, Note_on_c, 1, 52, 100
3, 62208, Note_on_c, 1, 56, 100
3, 62208, Note_on_c, 1, 62, 100
3, 62400, Note_off_c, 1, 52, 90
3, 62400, Note_off_c, 1, 56, 90
3, 62400, Note_off_c, 1, 62, 90
3, 62976, Note_on_c, 1, 57, 100
3, 62976, Note_on_c, 1, 60, 100
3, 62976, Note_on_c, 1, 64, 100
3, 63168, Note_off_c, 1, 57, 90
3, 63168, Note_off_c, 1, 60, 90
3, 63168, Note_off_c, 1, 64, 90
3, 63360, Note_on_c, 1, 69, 100
3, 63552, Note_off_c, 1, 69, 90
3, 63552, Note_on_c, 1, 65, 100
3, 63744, Note_off_c, 1, 65, 90
3, 63744, Note_on_c, 1, 62, 100
3, 63936, Note_off_c, 1, 62, 90
3, 63936, Note_on_c, 1, 59, 100
3, 64128, Note_off_c, 1, 59, 90
3, 64128, Note_on_c, 1, 62, 100
3, 64320, Note_off_c, 1, 62, 90
3, 64320, Note_on_c, 1, 65, 100
3, 64512, Note_off_c, 1, 65, 90
3, 64512, Note_on_c, 1, 64, 100
3, 64704, Note_off_c, 1, 64, 90
3, 65280, Note_on_c, 1, 64, 100
3, 65280, Note_on_c, 1, 68, 100
3, 65280, Note_on_c, 1, 74, 100
3, 65472, Note_off_c, 1, 64, 90
3, 65472, Note_off_c, 1, 68, 90
3, 65472, Note_off_c, 1, 74, 90
3, 66048, Note_on_c, 1, 69, 100
3, 66048, Note_on_c, 1, 72, 100
3, 66048, Note_on_c, 1, 76, 100
3, 66240, Note_off_c, 1, 69, 90
3, 66240, Note_off_c, 1, 72, 90
3, 66240, Note_off_c, 1, 76, 90
3, 66432, Note_on_c, 1, 69, 100
3, 66432, Note_on_c, 1, 73, 100
3, 66432, Note_on_c, 1, 76, 100
3, 66624, Note_off_c, 1, 69, 90
3, 66624, Note_off_c, 1, 73, 90
3, 66624, Note_off_c, 1, 76, 90
3, 66816, Note_on_c, 1, 69, 100
3, 66816, Note_on_c, 1, 74, 100
3, 66816, Note_on_c, 1, 77, 100
3, 67008, Note_off_c, 1, 69, 90
3, 67008, Note_off_c, 1, 74, 90
3, 67008, Note_off_c, 1, 77, 90
3, 67584, Note_on_c, 1, 57, 100
3, 67584, Note_on_c, 1, 60, 100
3, 67584, Note_on_c, 1, 64, 100
3, 67776, Note_off_c, 1, 57, 90
3, 67776, Note_off_c, 1, 60, 90
3, 67776, Note_off_c, 1, 64, 90
3, 67968, Note_on_c, 1, 57, 100
3, 67968, Note_on_c, 1, 61, 100
3, 67968, Note_on_c, 1, 64, 100
3, 68160, Note_off_c, 1, 57, 90
3, 68160, Note_off_c, 1, 61, 90
3, 68160, Note_off_c, 1, 64, 90
3, 68352, Note_on_c, 1, 57, 100
3, 68352, Note_on_c, 1, 62, 100
3, 68352, Note_on_c, 1, 65, 100
3, 68544, Note_off_c, 1, 57, 90
3, 68544, Note_off_c, 1, 62, 90
3, 68544, Note_off_c, 1, 65, 90
3, 69120, Note_on_c, 1, 57, 100
3, 69504, Note_off_c, 1, 57, 90
3, 69504, Note_on_c, 1, 58, 100
3, 69504, Note_on_c, 1, 56, 100
3, 69888, Note_off_c, 1, 58, 90
3, 69888, Note_off_c, 1, 56, 90
3, 69888, Note_on_c, 1, 57, 100
3, 70080, Note_off_c, 1, 57, 90
3, 70080, Note_on_c, 1, 55, 100
3, 70272, Note_off_c, 1, 55, 90
3, 70272, Note_on_c, 1, 54, 100
3, 70464, Note_off_c, 1, 54, 90
3, 70464, Note_on_c, 1, 53, 100
3, 70656, Note_off_c, 1, 53, 90
3, 70656, Note_on_c, 1, 52, 100
3, 70848, Note_off_c, 1, 52, 90
3, 71040, Note_on_c, 1, 65, 100
3, 71424, Note_off_c, 1, 65, 90
3, 71424, Note_on_c, 1, 64, 100
3, 71616, Note_off_c, 1, 64, 90
3, 71616, Note_on_c, 1, 62, 100
3, 71808, Note_off_c, 1, 62, 90
3, 71808, Note_on_c, 1, 60, 100
3, 72000, Note_off_c, 1, 60, 90
3, 72000, Note_on_c, 1, 59, 100
3, 72192, Note_off_c, 1, 59, 90
3, 72192, Note_on_c, 1, 57, 100
3, 72384, Note_off_c, 1, 57, 90
3, 75648, Note_on_c, 1, 57, 100
3, 75648, Note_on_c, 1, 64, 100
3, 75840, Note_off_c, 1, 57, 90
3, 75840, Note_off_c, 1, 64, 90
3, 76032, Note_on_c, 1, 45, 100
3, 76224, Note_off_c, 1, 45, 90
3, 76416, Note_on_c, 1, 45, 100
3, 76416, Note_on_c, 1, 52, 100
3, 76608, Note_off_c, 1, 45, 90
3, 76608, Note_off_c, 1, 52, 90
3, 76800, Note_on_c, 1, 33, 100
3, 77376, Note_off_c, 1, 33, 90
3, 77376, End_track
4, 0, Start_track
4, 0, Title_t, "Pizz Strings"
4, 0, Control_c, 2, 0, 0
4, 0, Program_c, 2, 45
4, 0, Control_c, 2, 7, 88
4, 0, Control_c, 2, 10, 103
4, 0, Control_c, 2, 91, 127
4, 0, Control_c, 2, 93, 0
4, 0, Note_on_c, 2, 74, 100
4, 0, Note_on_c, 2, 68, 100
4, 0, Note_on_c, 2, 64, 100
4, 192, Note_off_c, 2, 74, 90
4, 192, Note_off_c, 2, 68, 90
4, 192, Note_off_c, 2, 64, 90
4, 1536, Note_on_c, 2, 52, 100
4, 1536, Note_on_c, 2, 56, 100
4, 1536, Note_on_c, 2, 62, 100
4, 1728, Note_off_c, 2, 52, 90
4, 1728, Note_off_c, 2, 56, 90
4, 1728, Note_off_c, 2, 62, 90
4, 4608, Note_on_c, 2, 45, 100
4, 4608, Note_on_c, 2, 52, 100
4, 4608, Note_on_c, 2, 57, 100
4, 4800, Note_off_c, 2, 45, 90
4, 4800, Note_off_c, 2, 52, 90
4, 4800, Note_off_c, 2, 57, 90
4, 5376, Note_on_c, 2, 45, 100
4, 5376, Note_on_c, 2, 52, 100
4, 5376, Note_on_c, 2, 57, 100
4, 5568, Note_off_c, 2, 45, 90
4, 5568, Note_off_c, 2, 52, 90
4, 5568, Note_off_c, 2, 57, 90
4, 5760, Note_on_c, 2, 50, 100
4, 5760, Note_on_c, 2, 54, 100
4, 5760, Note_on_c, 2, 57, 100
4, 5952, Note_off_c, 2, 50, 90
4, 5952, Note_off_c, 2, 54, 90
4, 5952, Note_off_c, 2, 57, 90
4, 6144, Note_on_c, 2, 45, 100
4, 6144, Note_on_c, 2, 52, 100
4, 6144, Note_on_c, 2, 57, 100
4, 6336, Note_off_c, 2, 45, 90
4, 6336, Note_off_c, 2, 52, 90
4, 6336, Note_off_c, 2, 57, 90
4, 6912, Note_on_c, 2, 45, 100
4, 6912, Note_on_c, 2, 52, 100
4, 6912, Note_on_c, 2, 57, 100
4, 7104, Note_off_c, 2, 45, 90
4, 7104, Note_off_c, 2, 52, 90
4, 7104, Note_off_c, 2, 57, 90
4, 7296, Note_on_c, 2, 50, 100
4, 7296, Note_on_c, 2, 54, 100
4, 7296, Note_on_c, 2, 57, 100
4, 7488, Note_off_c, 2, 50, 90
4, 7488, Note_off_c, 2, 54, 90
4, 7488, Note_off_c, 2, 57, 90
4, 7680, Note_on_c, 2, 45, 100
4, 7680, Note_on_c, 2, 52, 100
4, 7680, Note_on_c, 2, 57, 100
4, 7872, Note_off_c, 2, 45, 90
4, 7872, Note_off_c, 2, 52, 90
4, 7872, Note_off_c, 2, 57, 90
4, 8064, Note_on_c, 2, 53, 100
4, 8064, Note_on_c, 2, 57, 100
4, 8256, Note_off_c, 2, 53, 90
4, 8256, Note_off_c, 2, 57, 90
4, 8448, Note_on_c, 2, 52, 100
4, 8448, Note_on_c, 2, 57, 100
4, 8640, Note_off_c, 2, 52, 90
4, 8640, Note_off_c, 2, 57, 90
4, 8832, Note_on_c, 2, 50, 100
4, 8832, Note_on_c, 2, 56, 100
4, 8832, Note_on_c, 2, 59, 100
4, 9024, Note_off_c, 2, 50, 90
4, 9024, Note_off_c, 2, 56, 90
4, 9024, Note_off_c, 2, 59, 90
4, 9216, Note_on_c, 2, 48, 100
4, 9216, Note_on_c, 2, 57, 100
4, 9408, Note_off_c, 2, 48, 90
4, 9408, Note_off_c, 2, 57, 90
4, 9600, Note_on_c, 2, 53, 100
4, 9600, Note_on_c, 2, 57, 100
4, 9792, Note_off_c, 2, 53, 90
4, 9792, Note_off_c, 2, 57, 90
4, 9984, Note_on_c, 2, 52, 100
4, 9984, Note_on_c, 2, 57, 100
4, 10176, Note_off_c, 2, 52, 90
4, 10176, Note_off_c, 2, 57, 90
4, 10368, Note_on_c, 2, 50, 100
4, 10368, Note_on_c, 2, 56, 100
4, 10368, Note_on_c, 2, 59, 100
4, 10560, Note_off_c, 2, 50, 90
4, 10560, Note_off_c, 2, 56, 90
4, 10560, Note_off_c, 2, 59, 90
4, 10752, Note_on_c, 2, 49, 100
4, 10752, Note_on_c, 2, 57, 100
4, 10752, Note_on_c, 2, 59, 100
4, 10944, Note_off_c, 2, 49, 90
4, 10944, Note_off_c, 2, 57, 90
4, 10944, Note_off_c, 2, 59, 90
4, 11136, Note_on_c, 2, 50, 100
4, 11136, Note_on_c, 2, 53, 100
4, 11136, Note_on_c, 2, 57, 100
4, 11328, Note_off_c, 2, 50, 90
4, 11328, Note_off_c, 2, 53, 90
4, 11328, Note_off_c, 2, 57, 90
4, 11520, Note_on_c, 2, 53, 100
4, 11520, Note_on_c, 2, 57, 100
4, 11520, Note_on_c, 2, 62, 100
4, 11712, Note_off_c, 2, 53, 90
4, 11712, Note_off_c, 2, 57, 90
4, 11712, Note_off_c, 2, 62, 90
4, 11904, Note_on_c, 2, 50, 100
4, 11904, Note_on_c, 2, 55, 100
4, 11904, Note_on_c, 2, 59, 100
4, 12096, Note_off_c, 2, 50, 90
4, 12096, Note_off_c, 2, 55, 90
4, 12096, Note_off_c, 2, 59, 90
4, 12288, Note_on_c, 2, 53, 100
4, 12288, Note_on_c, 2, 57, 100
4, 12288, Note_on_c, 2, 62, 100
4, 12480, Note_off_c, 2, 53, 90
4, 12480, Note_off_c, 2, 57, 90
4, 12480, Note_off_c, 2, 62, 90
4, 13056, Note_on_c, 2, 53, 100
4, 13056, Note_on_c, 2, 57, 100
4, 13056, Note_on_c, 2, 62, 100
4, 13248, Note_off_c, 2, 53, 90
4, 13248, Note_off_c, 2, 57, 90
4, 13248, Note_off_c, 2, 62, 90
4, 13440, Note_on_c, 2, 50, 100
4, 13440, Note_on_c, 2, 55, 100
4, 13440, Note_on_c, 2, 59, 100
4, 13632, Note_off_c, 2, 50, 90
4, 13632, Note_off_c, 2, 55, 90
4, 13632, Note_off_c, 2, 59, 90
4, 13824, Note_on_c, 2, 53, 100
4, 13824, Note_on_c, 2, 57, 100
4, 13824, Note_on_c, 2, 62, 100
4, 14016, Note_off_c, 2, 53, 90
4, 14016, Note_off_c, 2, 57, 90
4, 14016, Note_off_c, 2, 62, 90
4, 14208, Note_on_c, 2, 55, 100
4, 14208, Note_on_c, 2, 58, 100
4, 14208, Note_on_c, 2, 62, 100
4, 14400, Note_off_c, 2, 55, 90
4, 14400, Note_off_c, 2, 58, 90
4, 14400, Note_off_c, 2, 62, 90
4, 14592, Note_on_c, 2, 53, 100
4, 14592, Note_on_c, 2, 57, 100
4, 14592, Note_on_c, 2, 62, 100
4, 14784, Note_off_c, 2, 53, 90
4, 14784, Note_off_c, 2, 57, 90
4, 14784, Note_off_c, 2, 62, 90
4, 14976, Note_on_c, 2, 52, 100
4, 14976, Note_on_c, 2, 55, 100
4, 14976, Note_on_c, 2, 57, 100
4, 14976, Note_on_c, 2, 61, 100
4, 15168, Note_off_c, 2, 52, 90
4, 15168, Note_off_c, 2, 55, 90
4, 15168, Note_off_c, 2, 57, 90
4, 15168, Note_off_c, 2, 61, 90
4, 15360, Note_on_c, 2, 50, 100
4, 15360, Note_on_c, 2, 53, 100
4, 15360, Note_on_c, 2, 57, 100
4, 15552, Note_off_c, 2, 50, 90
4, 15552, Note_off_c, 2, 53, 90
4, 15552, Note_off_c, 2, 57, 90
4, 15744, Note_on_c, 2, 50, 100
4, 15744, Note_on_c, 2, 55, 100
4, 15744, Note_on_c, 2, 58, 100
4, 15936, Note_off_c, 2, 50, 90
4, 15936, Note_off_c, 2, 55, 90
4, 15936, Note_off_c, 2, 58, 90
4, 16128, Note_on_c, 2, 50, 100
4, 16128, Note_on_c, 2, 53, 100
4, 16128, Note_on_c, 2, 57, 100
4, 16320, Note_off_c, 2, 50, 90
4, 16320, Note_off_c, 2, 53, 90
4, 16320, Note_off_c, 2, 57, 90
4, 16512, Note_on_c, 2, 49, 100
4, 16512, Note_on_c, 2, 55, 100
4, 16512, Note_on_c, 2, 57, 100
4, 16704, Note_off_c, 2, 49, 90
4, 16704, Note_off_c, 2, 55, 90
4, 16704, Note_off_c, 2, 57, 90
4, 16896, Note_on_c, 2, 50, 100
4, 16896, Note_on_c, 2, 53, 100
4, 16896, Note_on_c, 2, 57, 100
4, 17088, Note_off_c, 2, 50, 90
4, 17088, Note_off_c, 2, 53, 90
4, 17088, Note_off_c, 2, 57, 90
4, 21504, Note_on_c, 2, 53, 100
4, 23040, Note_off_c, 2, 53, 90
4, 23040, Note_on_c, 2, 54, 100
4, 23040, Note_on_c, 2, 57, 100
4, 23232, Note_off_c, 2, 54, 90
4, 23232, Note_off_c, 2, 57, 90
4, 27648, Note_on_c, 2, 58, 100
4, 28800, Note_off_c, 2, 58, 90
4, 28800, Note_on_c, 2, 58, 100
4, 28896, Note_off_c, 2, 58, 90
4, 28896, Note_on_c, 2, 59, 100
4, 28992, Note_off_c, 2, 59, 90
4, 28992, Note_on_c, 2, 60, 100
4, 29088, Note_off_c, 2, 60, 90
4, 29088, Note_on_c, 2, 61, 100
4, 29184, Note_off_c, 2, 61, 90
4, 29184, Note_on_c, 2, 55, 100
4, 29184, Note_on_c, 2, 58, 100
4, 29184, Note_on_c, 2, 62, 100
4, 29376, Note_off_c, 2, 55, 90
4, 29376, Note_off_c, 2, 58, 90
4, 29376, Note_off_c, 2, 62, 90
4, 29952, Note_on_c, 2, 58, 100
4, 29952, Note_on_c, 2, 62, 100
4, 29952, Note_on_c, 2, 67, 100
4, 30144, Note_off_c, 2, 58, 90
4, 30144, Note_off_c, 2, 62, 90
4, 30144, Note_off_c, 2, 67, 90
4, 30336, Note_on_c, 2, 60, 100
4, 30336, Note_on_c, 2, 63, 100
4, 30336, Note_on_c, 2, 67, 100
4, 30528, Note_off_c, 2, 60, 90
4, 30528, Note_off_c, 2, 63, 90
4, 30528, Note_off_c, 2, 67, 90
4, 30720, Note_on_c, 2, 58, 100
4, 30720, Note_on_c, 2, 62, 100
4, 30720, Note_on_c, 2, 67, 100
4, 30912, Note_off_c, 2, 58, 90
4, 30912, Note_off_c, 2, 62, 90
4, 30912, Note_off_c, 2, 67, 90
4, 31104, Note_on_c, 2, 54, 100
4, 31104, Note_on_c, 2, 60, 100
4, 31104, Note_on_c, 2, 63, 100
4, 31296, Note_off_c, 2, 54, 90
4, 31296, Note_off_c, 2, 60, 90
4, 31296, Note_off_c, 2, 63, 90
4, 31488, Note_on_c, 2, 55, 100
4, 31488, Note_on_c, 2, 58, 100
4, 31488, Note_on_c, 2, 62, 100
4, 31680, Note_off_c, 2, 55, 90
4, 31680, Note_off_c, 2, 58, 90
4, 31680, Note_off_c, 2, 62, 90
4, 31872, Note_on_c, 2, 53, 100
4, 31872, Note_on_c, 2, 57, 100
4, 31872, Note_on_c, 2, 62, 100
4, 32064, Note_off_c, 2, 53, 90
4, 32064, Note_off_c, 2, 57, 90
4, 32064, Note_off_c, 2, 62, 90
4, 32256, Note_on_c, 2, 52, 100
4, 32256, Note_on_c, 2, 56, 100
4, 32256, Note_on_c, 2, 62, 100
4, 32448, Note_off_c, 2, 52, 90
4, 32448, Note_off_c, 2, 56, 90
4, 32448, Note_off_c, 2, 62, 90
4, 34176, Note_on_c, 2, 52, 100
4, 34368, Note_off_c, 2, 52, 90
4, 34368, Note_on_c, 2, 48, 100
4, 34560, Note_off_c, 2, 48, 90
4, 34560, Note_on_c, 2, 45, 100
4, 34752, Note_off_c, 2, 45, 90
4, 34752, Note_on_c, 2, 41, 100
4, 34944, Note_off_c, 2, 41, 90
4, 34944, Note_on_c, 2, 45, 100
4, 35136, Note_off_c, 2, 45, 90
4, 35136, Note_on_c, 2, 48, 100
4, 35328, Note_off_c, 2, 48, 90
4, 35328, Note_on_c, 2, 52, 100
4, 35712, Note_off_c, 2, 52, 90
4, 35712, Note_on_c, 2, 52, 100
4, 35904, Note_off_c, 2, 52, 90
4, 35904, Note_on_c, 2, 48, 100
4, 36096, Note_off_c, 2, 48, 90
4, 36096, Note_on_c, 2, 45, 100
4, 36288, Note_off_c, 2, 45, 90
4, 36288, Note_on_c, 2, 41, 100
4, 36480, Note_off_c, 2, 41, 90
4, 36480, Note_on_c, 2, 45, 100
4, 36672, Note_off_c, 2, 45, 90
4, 36672, Note_on_c, 2, 48, 100
4, 36864, Note_off_c, 2, 48, 90
4, 36864, Note_on_c, 2, 52, 100
4, 37056, Note_off_c, 2, 52, 90
4, 37632, Note_on_c, 2, 60, 100
4, 37728, Note_off_c, 2, 60, 90
4, 37728, Note_on_c, 2, 59, 100
4, 37824, Note_off_c, 2, 59, 90
4, 37824, Note_on_c, 2, 58, 100
4, 37920, Note_off_c, 2, 58, 90
4, 37920, Note_on_c, 2, 57, 100
4, 38016, Note_off_c, 2, 57, 90
4, 38016, Note_on_c, 2, 56, 100
4, 38112, Note_off_c, 2, 56, 90
4, 38112, Note_on_c, 2, 55, 100
4, 38208, Note_off_c, 2, 55, 90
4, 38208, Note_on_c, 2, 54, 100
4, 38304, Note_off_c, 2, 54, 90
4, 38304, Note_on_c, 2, 53, 100
4, 38400, Note_off_c, 2, 53, 90
4, 38400, Note_on_c, 2, 52, 100
4, 38496, Note_off_c, 2, 52, 90
4, 38496, Note_on_c, 2, 53, 100
4, 38592, Note_off_c, 2, 53, 90
4, 38592, Note_on_c, 2, 52, 100
4, 38688, Note_off_c, 2, 52, 90
4, 38688, Note_on_c, 2, 51, 100
4, 38784, Note_off_c, 2, 51, 90
4, 38784, Note_on_c, 2, 52, 100
4, 38880, Note_off_c, 2, 52, 90
4, 38880, Note_on_c, 2, 53, 100
4, 38976, Note_off_c, 2, 53, 90
4, 38976, Note_on_c, 2, 52, 100
4, 39072, Note_off_c, 2, 52, 90
4, 39072, Note_on_c, 2, 51, 100
4, 39168, Note_off_c, 2, 51, 90
4, 39168, Note_on_c, 2, 52, 100
4, 39264, Note_off_c, 2, 52, 90
4, 39264, Note_on_c, 2, 53, 100
4, 39360, Note_off_c, 2, 53, 90
4, 39360, Note_on_c, 2, 52, 100
4, 39456, Note_off_c, 2, 52, 90
4, 39456, Note_on_c, 2, 51, 100
4, 39552, Note_off_c, 2, 51, 90
4, 39552, Note_on_c, 2, 52, 100
4, 39648, Note_off_c, 2, 52, 90
4, 39648, Note_on_c, 2, 53, 100
4, 39744, Note_off_c, 2, 53, 90
4, 39744, Note_on_c, 2, 52, 100
4, 39840, Note_off_c, 2, 52, 90
4, 39840, Note_on_c, 2, 51, 100
4, 39936, Note_off_c, 2, 51, 90
4, 39936, Note_on_c, 2, 52, 100
4, 40032, Note_off_c, 2, 52, 90
4, 40032, Note_on_c, 2, 53, 100
4, 40128, Note_off_c, 2, 53, 90
4, 40128, Note_on_c, 2, 52, 100
4, 40224, Note_off_c, 2, 52, 90
4, 40224, Note_on_c, 2, 51, 100
4, 40320, Note_off_c, 2, 51, 90
4, 40320, Note_on_c, 2, 52, 100
4, 40416, Note_off_c, 2, 52, 90
4, 40416, Note_on_c, 2, 53, 100
4, 40512, Note_off_c, 2, 53, 90
4, 40512, Note_on_c, 2, 52, 100
4, 40608, Note_off_c, 2, 52, 90
4, 40608, Note_on_c, 2, 51, 100
4, 40704, Note_off_c, 2, 51, 90
4, 40704, Note_on_c, 2, 52, 100
4, 40800, Note_off_c, 2, 52, 90
4, 40800, Note_on_c, 2, 53, 100
4, 40896, Note_off_c, 2, 53, 90
4, 40896, Note_on_c, 2, 52, 100
4, 40992, Note_off_c, 2, 52, 90
4, 40992, Note_on_c, 2, 51, 100
4, 41088, Note_off_c, 2, 51, 90
4, 41088, Note_on_c, 2, 52, 100
4, 41184, Note_off_c, 2, 52, 90
4, 41184, Note_on_c, 2, 53, 100
4, 41280, Note_off_c, 2, 53, 90
4, 41280, Note_on_c, 2, 52, 100
4, 41376, Note_off_c, 2, 52, 90
4, 41376, Note_on_c, 2, 51, 100
4, 41472, Note_off_c, 2, 51, 90
4, 41472, Note_on_c, 2, 52, 100
4, 41568, Note_off_c, 2, 52, 90
4, 41568, Note_on_c, 2, 53, 100
4, 41664, Note_off_c, 2, 53, 90
4, 41664, Note_on_c, 2, 54, 100
4, 41760, Note_off_c, 2, 54, 90
4, 41760, Note_on_c, 2, 55, 100
4, 41856, Note_off_c, 2, 55, 90
4, 41856, Note_on_c, 2, 56, 100
4, 41952, Note_off_c, 2, 56, 90
4, 41952, Note_on_c, 2, 57, 100
4, 42048, Note_off_c, 2, 57, 90
4, 42048, Note_on_c, 2, 58, 100
4, 42144, Note_off_c, 2, 58, 90
4, 42144, Note_on_c, 2, 59, 100
4, 42240, Note_off_c, 2, 59, 90
4, 42240, Note_on_c, 2, 60, 100
4, 42336, Note_off_c, 2, 60, 90
4, 42336, Note_on_c, 2, 61, 100
4, 42432, Note_off_c, 2, 61, 90
4, 42432, Note_on_c, 2, 62, 100
4, 42528, Note_off_c, 2, 62, 90
4, 42528, Note_on_c, 2, 63, 100
4, 42624, Note_off_c, 2, 63, 90
4, 42624, Note_on_c, 2, 64, 100
4, 42720, Note_off_c, 2, 64, 90
4, 42720, Note_on_c, 2, 65, 100
4, 42816, Note_off_c, 2, 65, 90
4, 42816, Note_on_c, 2, 66, 100
4, 42912, Note_off_c, 2, 66, 90
4, 42912, Note_on_c, 2, 67, 100
4, 43008, Note_off_c, 2, 67, 90
4, 43008, Note_on_c, 2, 68, 100
4, 43104, Note_off_c, 2, 68, 90
4, 44544, Note_on_c, 2, 57, 100
4, 44544, Note_on_c, 2, 60, 100
4, 44544, Note_on_c, 2, 64, 100
4, 44736, Note_off_c, 2, 57, 90
4, 44736, Note_off_c, 2, 60, 90
4, 44736, Note_off_c, 2, 64, 90
4, 45120, Note_on_c, 2, 64, 100
4, 45120, Note_on_c, 2, 60, 100
4, 45120, Note_on_c, 2, 57, 100
4, 45312, Note_off_c, 2, 64, 90
4, 45312, Note_off_c, 2, 60, 90
4, 45312, Note_off_c, 2, 57, 90
4, 45312, Note_on_c, 2, 57, 100
4, 45312, Note_on_c, 2, 60, 100
4, 45312, Note_on_c, 2, 64, 100
4, 45504, Note_off_c, 2, 57, 90
4, 45504, Note_off_c, 2, 60, 90
4, 45504, Note_off_c, 2, 64, 90
4, 45696, Note_on_c, 2, 54, 100
4, 45696, Note_on_c, 2, 57, 100
4, 45696, Note_on_c, 2, 62, 100
4, 45888, Note_off_c, 2, 54, 90
4, 45888, Note_off_c, 2, 57, 90
4, 45888, Note_off_c, 2, 62, 90
4, 46080, Note_on_c, 2, 57, 100
4, 46080, Note_on_c, 2, 60, 100
4, 46080, Note_on_c, 2, 64, 100
4, 46272, Note_off_c, 2, 57, 90
4, 46272, Note_off_c, 2, 60, 90
4, 46272, Note_off_c, 2, 64, 90
4, 46656, Note_on_c, 2, 64, 100
4, 46656, Note_on_c, 2, 60, 100
4, 46656, Note_on_c, 2, 57, 100
4, 46848, Note_off_c, 2, 64, 90
4, 46848, Note_off_c, 2, 60, 90
4, 46848, Note_off_c, 2, 57, 90
4, 46848, Note_on_c, 2, 57, 100
4, 46848, Note_on_c, 2, 60, 100
4, 46848, Note_on_c, 2, 64, 100
4, 47040, Note_off_c, 2, 57, 90
4, 47040, Note_off_c, 2, 60, 90
4, 47040, Note_off_c, 2, 64, 90
4, 47232, Note_on_c, 2, 54, 100
4, 47232, Note_on_c, 2, 57, 100
4, 47232, Note_on_c, 2, 62, 100
4, 47424, Note_off_c, 2, 54, 90
4, 47424, Note_off_c, 2, 57, 90
4, 47424, Note_off_c, 2, 62, 90
4, 47616, Note_on_c, 2, 57, 100
4, 47616, Note_on_c, 2, 60, 100
4, 47616, Note_on_c, 2, 64, 100
4, 47808, Note_off_c, 2, 57, 90
4, 47808, Note_off_c, 2, 60, 90
4, 47808, Note_off_c, 2, 64, 90
4, 48000, Note_on_c, 2, 53, 100
4, 48000, Note_on_c, 2, 57, 100
4, 48000, Note_on_c, 2, 62, 100
4, 48192, Note_off_c, 2, 53, 90
4, 48192, Note_off_c, 2, 57, 90
4, 48192, Note_off_c, 2, 62, 90
4, 48384, Note_on_c, 2, 52, 100
4, 48384, Note_on_c, 2, 57, 100
4, 48384, Note_on_c, 2, 60, 100
4, 48576, Note_off_c, 2, 52, 90
4, 48576, Note_off_c, 2, 57, 90
4, 48576, Note_off_c, 2, 60, 90
4, 48768, Note_on_c, 2, 50, 100
4, 48768, Note_on_c, 2, 56, 100
4, 48768, Note_on_c, 2, 59, 100
4, 48960, Note_off_c, 2, 50, 90
4, 48960, Note_off_c, 2, 56, 90
4, 48960, Note_off_c, 2, 59, 90
4, 49152, Note_on_c, 2, 48, 100
4, 49152, Note_on_c, 2, 52, 100
4, 49152, Note_on_c, 2, 57, 100
4, 49344, Note_off_c, 2, 48, 90
4, 49344, Note_off_c, 2, 52, 90
4, 49344, Note_off_c, 2, 57, 90
4, 49536, Note_on_c, 2, 53, 100
4, 49536, Note_on_c, 2, 57, 100
4, 49536, Note_on_c, 2, 62, 100
4, 49728, Note_off_c, 2, 53, 90
4, 49728, Note_off_c, 2, 57, 90
4, 49728, Note_off_c, 2, 62, 90
4, 49920, Note_on_c, 2, 52, 100
4, 49920, Note_on_c, 2, 57, 100
4, 49920, Note_on_c, 2, 60, 100
4, 50112, Note_off_c, 2, 52, 90
4, 50112, Note_off_c, 2, 57, 90
4, 50112, Note_off_c, 2, 60, 90
4, 50304, Note_on_c, 2, 50, 100
4, 50304, Note_on_c, 2, 56, 100
4, 50304, Note_on_c, 2, 59, 100
4, 50496, Note_off_c, 2, 50, 90
4, 50496, Note_off_c, 2, 56, 90
4, 50496, Note_off_c, 2, 59, 90
4, 50688, Note_on_c, 2, 49, 100
4, 50688, Note_on_c, 2, 55, 100
4, 50688, Note_on_c, 2, 57, 100
4, 50880, Note_off_c, 2, 49, 90
4, 50880, Note_off_c, 2, 55, 90
4, 50880, Note_off_c, 2, 57, 90
4, 51072, Note_on_c, 2, 50, 100
4, 51072, Note_on_c, 2, 53, 100
4, 51072, Note_on_c, 2, 57, 100
4, 51264, Note_off_c, 2, 50, 90
4, 51264, Note_off_c, 2, 53, 90
4, 51264, Note_off_c, 2, 57, 90
4, 51456, Note_on_c, 2, 53, 100
4, 51456, Note_on_c, 2, 57, 100
4, 51456, Note_on_c, 2, 62, 100
4, 51648, Note_off_c, 2, 53, 90
4, 51648, Note_off_c, 2, 57, 90
4, 51648, Note_off_c, 2, 62, 90
4, 51840, Note_on_c, 2, 47, 100
4, 51840, Note_on_c, 2, 50, 100
4, 51840, Note_on_c, 2, 55, 100
4, 52032, Note_off_c, 2, 47, 90
4, 52032, Note_off_c, 2, 50, 90
4, 52032, Note_off_c, 2, 55, 90
4, 52224, Note_on_c, 2, 50, 100
4, 52224, Note_on_c, 2, 53, 100
4, 52224, Note_on_c, 2, 57, 100
4, 52416, Note_off_c, 2, 50, 90
4, 52416, Note_off_c, 2, 53, 90
4, 52416, Note_off_c, 2, 57, 90
4, 52800, Note_on_c, 2, 57, 100
4, 52800, Note_on_c, 2, 53, 100
4, 52800, Note_on_c, 2, 50, 100
4, 52992, Note_off_c, 2, 57, 90
4, 52992, Note_off_c, 2, 53, 90
4, 52992, Note_off_c, 2, 50, 90
4, 52992, Note_on_c, 2, 50, 100
4, 52992, Note_on_c, 2, 53, 100
4, 52992, Note_on_c, 2, 57, 100
4, 53184, Note_off_c, 2, 50, 90
4, 53184, Note_off_c, 2, 53, 90
4, 53184, Note_off_c, 2, 57, 90
4, 53376, Note_on_c, 2, 50, 100
4, 53376, Note_on_c, 2, 53, 100
4, 53376, Note_on_c, 2, 57, 100
4, 53568, Note_off_c, 2, 50, 90
4, 53568, Note_off_c, 2, 53, 90
4, 53568, Note_off_c, 2, 57, 90
4, 53760, Note_on_c, 2, 50, 100
4, 53760, Note_on_c, 2, 53, 100
4, 53760, Note_on_c, 2, 57, 100
4, 53952, Note_off_c, 2, 50, 90
4, 53952, Note_off_c, 2, 53, 90
4, 53952, Note_off_c, 2, 57, 90
4, 54144, Note_on_c, 2, 58, 100
4, 54144, Note_on_c, 2, 62, 100
4, 54144, Note_on_c, 2, 67, 100
4, 54336, Note_off_c, 2, 58, 90
4, 54336, Note_off_c, 2, 62, 90
4, 54336, Note_off_c, 2, 67, 90
4, 54528, Note_on_c, 2, 57, 100
4, 54528, Note_on_c, 2, 62, 100
4, 54528, Note_on_c, 2, 65, 100
4, 54720, Note_off_c, 2, 57, 90
4, 54720, Note_off_c, 2, 62, 90
4, 54720, Note_off_c, 2, 65, 90
4, 54912, Note_on_c, 2, 55, 100
4, 54912, Note_on_c, 2, 61, 100
4, 54912, Note_on_c, 2, 64, 100
4, 55104, Note_off_c, 2, 55, 90
4, 55104, Note_off_c, 2, 61, 90
4, 55104, Note_off_c, 2, 64, 90
4, 55296, Note_on_c, 2, 53, 100
4, 55296, Note_on_c, 2, 57, 100
4, 55296, Note_on_c, 2, 62, 100
4, 55488, Note_off_c, 2, 53, 90
4, 55488, Note_off_c, 2, 57, 90
4, 55488, Note_off_c, 2, 62, 90
4, 55680, Note_on_c, 2, 50, 100
4, 55680, Note_on_c, 2, 53, 100
4, 55680, Note_on_c, 2, 57, 100
4, 55872, Note_off_c, 2, 50, 90
4, 55872, Note_off_c, 2, 53, 90
4, 55872, Note_off_c, 2, 57, 90
4, 56064, Note_on_c, 2, 48, 100
4, 56064, Note_on_c, 2, 52, 100
4, 56064, Note_on_c, 2, 57, 100
4, 56256, Note_off_c, 2, 48, 90
4, 56256, Note_off_c, 2, 52, 90
4, 56256, Note_off_c, 2, 57, 90
4, 56448, Note_on_c, 2, 47, 100
4, 56448, Note_on_c, 2, 50, 100
4, 56448, Note_on_c, 2, 56, 100
4, 56640, Note_off_c, 2, 47, 90
4, 56640, Note_off_c, 2, 50, 90
4, 56640, Note_off_c, 2, 56, 90
4, 56832, Note_on_c, 2, 45, 100
4, 56832, Note_on_c, 2, 48, 100
4, 56832, Note_on_c, 2, 52, 100
4, 57024, Note_off_c, 2, 45, 90
4, 57024, Note_off_c, 2, 48, 90
4, 57024, Note_off_c, 2, 52, 90
4, 57024, Note_on_c, 2, 45, 100
4, 57024, Note_on_c, 2, 48, 100
4, 57024, Note_on_c, 2, 52, 100
4, 57216, Note_off_c, 2, 45, 90
4, 57216, Note_off_c, 2, 48, 90
4, 57216, Note_off_c, 2, 52, 90
4, 57600, Note_on_c, 2, 57, 100
4, 57600, Note_on_c, 2, 60, 100
4, 57600, Note_on_c, 2, 64, 100
4, 57792, Note_off_c, 2, 57, 90
4, 57792, Note_off_c, 2, 60, 90
4, 57792, Note_off_c, 2, 64, 90
4, 57984, Note_on_c, 2, 54, 100
4, 57984, Note_on_c, 2, 57, 100
4, 57984, Note_on_c, 2, 62, 100
4, 58176, Note_off_c, 2, 54, 90
4, 58176, Note_off_c, 2, 57, 90
4, 58176, Note_off_c, 2, 62, 90
4, 58368, Note_on_c, 2, 57, 100
4, 58368, Note_on_c, 2, 60, 100
4, 58368, Note_on_c, 2, 64, 100
4, 58560, Note_off_c, 2, 57, 90
4, 58560, Note_off_c, 2, 60, 90
4, 58560, Note_off_c, 2, 64, 90
4, 58560, Note_on_c, 2, 57, 100
4, 58560, Note_on_c, 2, 60, 100
4, 58560, Note_on_c, 2, 64, 100
4, 58752, Note_off_c, 2, 57, 90
4, 58752, Note_off_c, 2, 60, 90
4, 58752, Note_off_c, 2, 64, 90
4, 59136, Note_on_c, 2, 57, 100
4, 59136, Note_on_c, 2, 60, 100
4, 59136, Note_on_c, 2, 64, 100
4, 59328, Note_off_c, 2, 57, 90
4, 59328, Note_off_c, 2, 60, 90
4, 59328, Note_off_c, 2, 64, 90
4, 59520, Note_on_c, 2, 54, 100
4, 59520, Note_on_c, 2, 57, 100
4, 59520, Note_on_c, 2, 62, 100
4, 59712, Note_off_c, 2, 54, 90
4, 59712, Note_off_c, 2, 57, 90
4, 59712, Note_off_c, 2, 62, 90
4, 59904, Note_on_c, 2, 57, 100
4, 59904, Note_on_c, 2, 60, 100
4, 59904, Note_on_c, 2, 64, 100
4, 60096, Note_off_c, 2, 57, 90
4, 60096, Note_off_c, 2, 60, 90
4, 60096, Note_off_c, 2, 64, 90
4, 60288, Note_on_c, 2, 57, 100
4, 60480, Note_off_c, 2, 57, 90
4, 60480, Note_on_c, 2, 53, 100
4, 60672, Note_off_c, 2, 53, 90
4, 60672, Note_on_c, 2, 50, 100
4, 60864, Note_off_c, 2, 50, 90
4, 60864, Note_on_c, 2, 47, 100
4, 61056, Note_off_c, 2, 47, 90
4, 61056, Note_on_c, 2, 50, 100
4, 61248, Note_off_c, 2, 50, 90
4, 61248, Note_on_c, 2, 53, 100
4, 61440, Note_off_c, 2, 53, 90
4, 61440, Note_on_c, 2, 52, 100
4, 61632, Note_off_c, 2, 52, 90
4, 62208, Note_on_c, 2, 52, 100
4, 62208, Note_on_c, 2, 56, 100
4, 62208, Note_on_c, 2, 62, 100
4, 62400, Note_off_c, 2, 52, 90
4, 62400, Note_off_c, 2, 56, 90
4, 62400, Note_off_c, 2, 62, 90
4, 62976, Note_on_c, 2, 57, 100
4, 62976, Note_on_c, 2, 60, 100
4, 62976, Note_on_c, 2, 64, 100
4, 63168, Note_off_c, 2, 57, 90
4, 63168, Note_off_c, 2, 60, 90
4, 63168, Note_off_c, 2, 64, 90
4, 63360, Note_on_c, 2, 69, 100
4, 63552, Note_off_c, 2, 69, 90
4, 63552, Note_on_c, 2, 65, 100
4, 63744, Note_off_c, 2, 65, 90
4, 63744, Note_on_c, 2, 62, 100
4, 63936, Note_off_c, 2, 62, 90
4, 63936, Note_on_c, 2, 59, 100
4, 64128, Note_off_c, 2, 59, 90
4, 64128, Note_on_c, 2, 62, 100
4, 64320, Note_off_c, 2, 62, 90
4, 64320, Note_on_c, 2, 65, 100
4, 64512, Note_off_c, 2, 65, 90
4, 64512, Note_on_c, 2, 64, 100
4, 64704, Note_off_c, 2, 64, 90
4, 65280, Note_on_c, 2, 64, 100
4, 65280, Note_on_c, 2, 68, 100
4, 65280, Note_on_c, 2, 74, 100
4, 65472, Note_off_c, 2, 64, 90
4, 65472, Note_off_c, 2, 68, 90
4, 65472, Note_off_c, 2, 74, 90
4, 66048, Note_on_c, 2, 69, 100
4, 66048, Note_on_c, 2, 72, 100
4, 66048, Note_on_c, 2, 76, 100
4, 66240, Note_off_c, 2, 69, 90
4, 66240, Note_off_c, 2, 72, 90
4, 66240, Note_off_c, 2, 76, 90
4, 66432, Note_on_c, 2, 69, 100
4, 66432, Note_on_c, 2, 73, 100
4, 66432, Note_on_c, 2, 76, 100
4, 66624, Note_off_c, 2, 69, 90
4, 66624, Note_off_c, 2, 73, 90
4, 66624, Note_off_c, 2, 76, 90
4, 66816, Note_on_c, 2, 69, 100
4, 66816, Note_on_c, 2, 74, 100
4, 66816, Note_on_c, 2, 77, 100
4, 67008, Note_off_c, 2, 69, 90
4, 67008, Note_off_c, 2, 74, 90
4, 67008, Note_off_c, 2, 77, 90
4, 67584, Note_on_c, 2, 57, 100
4, 67584, Note_on_c, 2, 60, 100
4, 67584, Note_on_c, 2, 64, 100
4, 67776, Note_off_c, 2, 57, 90
4, 67776, Note_off_c, 2, 60, 90
4, 67776, Note_off_c, 2, 64, 90
4, 67968, Note_on_c, 2, 57, 100
4, 67968, Note_on_c, 2, 61, 100
4, 67968, Note_on_c, 2, 64, 100
4, 68160, Note_off_c, 2, 57, 90
4, 68160, Note_off_c, 2, 61, 90
4, 68160, Note_off_c, 2, 64, 90
4, 68352, Note_on_c, 2, 57, 100
4, 68352, Note_on_c, 2, 62, 100
4, 68352, Note_on_c, 2, 65, 100
4, 68544, Note_off_c, 2, 57, 90
4, 68544, Note_off_c, 2, 62, 90
4, 68544, Note_off_c, 2, 65, 90
4, 69120, Note_on_c, 2, 57, 100
4, 69504, Note_off_c, 2, 57, 90
4, 69504, Note_on_c, 2, 58, 100
4, 69504, Note_on_c, 2, 56, 100
4, 69888, Note_off_c, 2, 58, 90
4, 69888, Note_off_c, 2, 56, 90
4, 69888, Note_on_c, 2, 57, 100
4, 70080, Note_off_c, 2, 57, 90
4, 70080, Note_on_c, 2, 55, 100
4, 70272, Note_off_c, 2, 55, 90
4, 70272, Note_on_c, 2, 54, 100
4, 70464, Note_off_c, 2, 54, 90
4, 70464, Note_on_c, 2, 53, 100
4, 70656, Note_off_c, 2, 53, 90
4, 70656, Note_on_c, 2, 52, 100
4, 70848, Note_off_c, 2, 52, 90
4, 71040, Note_on_c, 2, 65, 100
4, 71424, Note_off_c, 2, 65, 90
4, 71424, Note_on_c, 2, 64, 100
4, 71616, Note_off_c, 2, 64, 90
4, 71616, Note_on_c, 2, 62, 100
4, 71808, Note_off_c, 2, 62, 90
4, 71808, Note_on_c, 2, 60, 100
4, 72000, Note_off_c, 2, 60, 90
4, 72000, Note_on_c, 2, 59, 100
4, 72192, Note_off_c, 2, 59, 90
4, 72192, Note_on_c, 2, 57, 100
4, 72384, Note_off_c, 2, 57, 90
4, 75648, Note_on_c, 2, 57, 100
4, 75648, Note_on_c, 2, 64, 100
4, 75840, Note_off_c, 2, 57, 90
4, 75840, Note_off_c, 2, 64, 90
4, 76032, Note_on_c, 2, 45, 100
4, 76224, Note_off_c, 2, 45, 90
4, 76416, Note_on_c, 2, 45, 100
4, 76416, Note_on_c, 2, 52, 100
4, 76608, Note_off_c, 2, 45, 90
4, 76608, Note_off_c, 2, 52, 90
4, 76800, Note_on_c, 2, 33, 100
4, 77376, Note_off_c, 2, 33, 90
4, 77376, End_track
0, 0, End_of_file
